<?xml version="1.0" encoding="UTF-8" standalone="no"?>
<svg width="600px" height="600px" viewBox="0 0 600 600" version="1.1" xmlns="http://www.w3.org/2000/svg" xmlns:xlink="http://www.w3.org/1999/xlink">
    <!-- Generator: Sketch 3.7.2 (28276) - http://www.bohemiancoding.com/sketch -->
    <title>filess text</title>
    <desc>Created with Sketch.</desc>
    <defs></defs>
    <g id="Page-1" stroke="none" stroke-width="1" fill="none" fill-rule="evenodd">
        <g id="filess-text">
            <g id="Group">
                <rect id="Rectangle-106" x="0" y="0" width="600" height="600"></rect>
                <path d="M234.068001,95 L238.004001,95 L238.004001,85.88 L249.300001,85.88 L249.300001,82.296 L238.004001,82.296 L238.004001,76.184 L250.740001,76.184 L250.740001,72.6 L234.068001,72.6 L234.068001,95 Z M259.550667,95 L263.486667,95 L263.486667,72.6 L259.550667,72.6 L259.550667,95 Z M273.737334,95 L289.449334,95 L289.449334,91.416 L277.673334,91.416 L277.673334,72.6 L273.737334,72.6 L273.737334,95 Z M297.812,95 L314.58,95 L314.58,91.48 L301.748,91.48 L301.748,85.464 L312.98,85.464 L312.98,81.944 L301.748,81.944 L301.748,76.12 L314.42,76.12 L314.42,72.6 L297.812,72.6 L297.812,95 Z M331.358666,95.32 C336.062666,95.32 339.358666,92.824 339.358666,88.632 C339.358666,84.856 336.894666,83.16 332.158666,82.008 C327.870666,80.984 326.846666,80.216 326.846666,78.488 C326.846666,76.952 328.190666,75.768 330.494666,75.768 C332.542666,75.768 334.558666,76.568 336.574666,78.072 L338.686666,75.096 C336.414666,73.272 333.822666,72.28 330.558666,72.28 C326.110666,72.28 322.910666,74.936 322.910666,78.776 C322.910666,82.968 325.598666,84.376 330.366666,85.496 C334.526666,86.488 335.422666,87.352 335.422666,88.952 C335.422666,90.712 333.886666,91.832 331.454666,91.832 C328.670666,91.832 326.526666,90.776 324.382666,88.92 L322.014666,91.736 C324.702666,94.136 327.934666,95.32 331.358666,95.32 L331.358666,95.32 Z M355.785333,95.32 C360.489333,95.32 363.785333,92.824 363.785333,88.632 C363.785333,84.856 361.321333,83.16 356.585333,82.008 C352.297333,80.984 351.273333,80.216 351.273333,78.488 C351.273333,76.952 352.617333,75.768 354.921333,75.768 C356.969333,75.768 358.985333,76.568 361.001333,78.072 L363.113333,75.096 C360.841333,73.272 358.249333,72.28 354.985333,72.28 C350.537333,72.28 347.337333,74.936 347.337333,78.776 C347.337333,82.968 350.025333,84.376 354.793333,85.496 C358.953333,86.488 359.849333,87.352 359.849333,88.952 C359.849333,90.712 358.313333,91.832 355.881333,91.832 C353.097333,91.832 350.953333,90.776 348.809333,88.92 L346.441333,91.736 C349.129333,94.136 352.361333,95.32 355.785333,95.32 L355.785333,95.32 Z" id="FILESS" fill="#FFFFFF"></path>
                <path d="M160.124,517 L161.58,517 L161.58,508.124 L172.668,508.124 L172.668,506.78 L161.58,506.78 L161.58,498.744 L173.928,498.744 L173.928,497.4 L160.124,497.4 L160.124,517 Z M179.38,517 L180.752,517 L180.752,502.72 L179.38,502.72 L179.38,517 Z M179.212,498.996 L180.92,498.996 L180.92,497.12 L179.212,497.12 L179.212,498.996 Z M187.352,517 L188.724,517 L188.724,496.56 L187.352,496.56 L187.352,517 Z M201.148,517.336 C203.892,517.336 205.6,516.216 207.056,514.648 L206.104,513.808 C204.928,515.068 203.416,516.048 201.204,516.048 C198.404,516.048 195.856,513.976 195.604,510.42 L207.448,510.42 C207.476,510.196 207.476,510.112 207.476,509.86 C207.476,505.632 204.928,502.384 200.924,502.384 C197.06,502.384 194.148,505.688 194.148,509.832 C194.148,514.34 197.396,517.336 201.148,517.336 L201.148,517.336 Z M195.604,509.188 C195.856,506.024 198.04,503.644 200.868,503.644 C204.144,503.644 205.796,506.304 205.992,509.188 L195.604,509.188 Z M221.88,517 L223.252,517 L223.252,508.768 C223.252,505.884 225.268,503.644 227.816,503.644 C230.364,503.644 231.988,505.464 231.988,508.432 L231.988,517 L233.36,517 L233.36,508.684 C233.36,505.492 235.46,503.644 237.868,503.644 C240.5,503.644 242.096,505.436 242.096,508.516 L242.096,517 L243.468,517 L243.468,508.348 C243.468,504.764 241.368,502.384 237.98,502.384 C235.292,502.384 233.752,503.868 232.828,505.464 C232.044,503.812 230.504,502.384 228.012,502.384 C225.464,502.384 224.176,503.784 223.252,505.268 L223.252,502.72 L221.88,502.72 L221.88,517 Z M255.528,517.336 C258.272,517.336 259.98,516.216 261.436,514.648 L260.484,513.808 C259.308,515.068 257.796,516.048 255.584,516.048 C252.784,516.048 250.236,513.976 249.984,510.42 L261.828,510.42 C261.856,510.196 261.856,510.112 261.856,509.86 C261.856,505.632 259.308,502.384 255.304,502.384 C251.44,502.384 248.528,505.688 248.528,509.832 C248.528,514.34 251.776,517.336 255.528,517.336 L255.528,517.336 Z M249.984,509.188 C250.236,506.024 252.42,503.644 255.248,503.644 C258.524,503.644 260.176,506.304 260.372,509.188 L249.984,509.188 Z M271.48,517.28 C274.224,517.28 276.408,515.656 276.408,513.108 C276.408,510.532 274,509.692 271.704,509.048 C269.66,508.46 267.728,507.872 267.728,506.276 C267.728,504.792 269.016,503.728 270.976,503.728 C272.488,503.728 274.056,504.288 275.372,505.156 L276.1,504.008 C274.672,503.056 272.74,502.44 271.032,502.44 C268.26,502.44 266.328,504.092 266.328,506.388 C266.328,508.992 268.904,509.692 271.228,510.364 C273.216,510.924 275.008,511.54 275.008,513.22 C275.008,514.928 273.496,515.992 271.564,515.992 C269.744,515.992 268.008,515.32 266.44,514.116 L265.628,515.208 C267.14,516.44 269.408,517.28 271.48,517.28 L271.48,517.28 Z M286.116,517.28 C288.86,517.28 291.044,515.656 291.044,513.108 C291.044,510.532 288.636,509.692 286.34,509.048 C284.296,508.46 282.364,507.872 282.364,506.276 C282.364,504.792 283.652,503.728 285.612,503.728 C287.124,503.728 288.692,504.288 290.008,505.156 L290.736,504.008 C289.308,503.056 287.376,502.44 285.668,502.44 C282.896,502.44 280.964,504.092 280.964,506.388 C280.964,508.992 283.54,509.692 285.864,510.364 C287.852,510.924 289.644,511.54 289.644,513.22 C289.644,514.928 288.132,515.992 286.2,515.992 C284.38,515.992 282.644,515.32 281.076,514.116 L280.264,515.208 C281.776,516.44 284.044,517.28 286.116,517.28 L286.116,517.28 Z M302.432,517.336 C305.176,517.336 306.884,516.216 308.34,514.648 L307.388,513.808 C306.212,515.068 304.7,516.048 302.488,516.048 C299.688,516.048 297.14,513.976 296.888,510.42 L308.732,510.42 C308.76,510.196 308.76,510.112 308.76,509.86 C308.76,505.632 306.212,502.384 302.208,502.384 C298.344,502.384 295.432,505.688 295.432,509.832 C295.432,514.34 298.68,517.336 302.432,517.336 L302.432,517.336 Z M296.888,509.188 C297.14,506.024 299.324,503.644 302.152,503.644 C305.428,503.644 307.08,506.304 307.276,509.188 L296.888,509.188 Z M313.764,517 L315.136,517 L315.136,508.74 C315.136,505.772 317.292,503.644 320.092,503.644 C322.976,503.644 324.628,505.576 324.628,508.516 L324.628,517 L326,517 L326,508.264 C326,504.848 323.9,502.384 320.288,502.384 C317.684,502.384 316.088,503.7 315.136,505.38 L315.136,502.72 L313.764,502.72 L313.764,517 Z M338.2,521.536 C340.3,521.536 342.148,520.864 343.38,519.632 C344.528,518.484 345.2,516.86 345.2,514.788 L345.2,502.72 L343.828,502.72 L343.828,505.576 C342.652,503.896 340.72,502.384 337.864,502.384 C334.42,502.384 331.004,505.044 331.004,509.16 C331.004,513.304 334.42,515.936 337.864,515.936 C340.692,515.936 342.596,514.396 343.828,512.632 L343.828,514.704 C343.828,518.372 341.504,520.248 338.228,520.248 C336.128,520.248 334.168,519.548 332.46,518.232 L331.648,519.352 C333.608,520.808 335.82,521.536 338.2,521.536 L338.2,521.536 Z M338.004,514.62 C335.064,514.62 332.488,512.38 332.488,509.16 C332.488,505.772 335.008,503.7 338.004,503.7 C340.972,503.7 343.912,505.828 343.912,509.132 C343.912,512.436 340.972,514.62 338.004,514.62 L338.004,514.62 Z M357.428,517.336 C360.172,517.336 361.88,516.216 363.336,514.648 L362.384,513.808 C361.208,515.068 359.696,516.048 357.484,516.048 C354.684,516.048 352.136,513.976 351.884,510.42 L363.728,510.42 C363.756,510.196 363.756,510.112 363.756,509.86 C363.756,505.632 361.208,502.384 357.204,502.384 C353.34,502.384 350.428,505.688 350.428,509.832 C350.428,514.34 353.676,517.336 357.428,517.336 L357.428,517.336 Z M351.884,509.188 C352.136,506.024 354.32,503.644 357.148,503.644 C360.424,503.644 362.076,506.304 362.272,509.188 L351.884,509.188 Z M368.76,517 L370.132,517 L370.132,511.148 C370.132,506.5 373.016,504.008 376.32,504.008 L376.46,504.008 L376.46,502.496 C373.632,502.384 371.252,504.232 370.132,506.78 L370.132,502.72 L368.76,502.72 L368.76,517 Z M394.7,517.336 C397.416,517.336 399.18,515.992 400.16,514.62 L400.16,517 L401.504,517 L401.504,508.096 C401.504,506.332 401,505.016 400.048,504.064 C399.012,503.028 397.472,502.496 395.54,502.496 C393.58,502.496 392.04,503 390.472,503.728 L390.976,504.932 C392.292,504.26 393.72,503.784 395.456,503.784 C398.396,503.784 400.16,505.268 400.16,508.152 L400.16,508.768 C398.788,508.404 397.416,508.152 395.428,508.152 C391.732,508.152 389.184,509.832 389.184,512.8 C389.184,515.824 392.04,517.336 394.7,517.336 L394.7,517.336 Z M394.784,516.048 C392.6,516.048 390.64,514.844 390.64,512.772 C390.64,510.728 392.32,509.384 395.344,509.384 C397.388,509.384 398.984,509.72 400.188,510.028 L400.188,511.652 C400.188,514.256 397.696,516.048 394.784,516.048 L394.784,516.048 Z M407.432,521.48 L408.804,521.48 L408.804,513.92 C409.98,515.712 411.828,517.336 414.684,517.336 C418.128,517.336 421.628,514.508 421.628,509.86 C421.628,505.156 418.128,502.384 414.684,502.384 C411.856,502.384 410.036,504.036 408.804,505.912 L408.804,502.72 L407.432,502.72 L407.432,521.48 Z M414.544,516.02 C411.576,516.02 408.72,513.556 408.72,509.888 C408.72,506.192 411.576,503.7 414.544,503.7 C417.54,503.7 420.144,506.108 420.144,509.86 C420.144,513.752 417.652,516.02 414.544,516.02 L414.544,516.02 Z M426.912,521.48 L428.284,521.48 L428.284,513.92 C429.46,515.712 431.308,517.336 434.164,517.336 C437.608,517.336 441.108,514.508 441.108,509.86 C441.108,505.156 437.608,502.384 434.164,502.384 C431.336,502.384 429.516,504.036 428.284,505.912 L428.284,502.72 L426.912,502.72 L426.912,521.48 Z M434.024,516.02 C431.056,516.02 428.2,513.556 428.2,509.888 C428.2,506.192 431.056,503.7 434.024,503.7 C437.02,503.7 439.624,506.108 439.624,509.86 C439.624,513.752 437.132,516.02 434.024,516.02 L434.024,516.02 Z" id="File-messenger-app" fill="#FFFFFF"></path>
            </g>
        </g>
    </g>
</svg>