<?xml version="1.0" encoding="UTF-8" standalone="no"?>
<svg width="600px" height="600px" viewBox="0 0 600 600" version="1.1" xmlns="http://www.w3.org/2000/svg" xmlns:xlink="http://www.w3.org/1999/xlink">
    <!-- Generator: Sketch 3.7.2 (28276) - http://www.bohemiancoding.com/sketch -->
    <title>filess bg</title>
    <desc>Created with Sketch.</desc>
    <defs>
        <linearGradient x1="50%" y1="100%" x2="0%" y2="0%" id="linearGradient-1">
            <stop stop-color="#16E09C" offset="0%"></stop>
            <stop stop-color="#0BFFCA" offset="100%"></stop>
        </linearGradient>
        <rect id="path-2" x="0" y="0" width="600" height="600"></rect>
    </defs>
    <g id="Page-1" stroke="none" stroke-width="1" fill="none" fill-rule="evenodd">
        <g id="filess-bg">
            <g id="Group-2">
                <mask id="mask-3" fill="white">
                    <use xlink:href="#path-2"></use>
                </mask>
                <use id="Mask" fill="url(#linearGradient-1)" xlink:href="#path-2"></use>
                <g id="Group-30" opacity="0.3" mask="url(#mask-3)" stroke-linecap="round" stroke="#FFFFFF" stroke-width="5">
                    <g transform="translate(-146.000000, -76.000000)">
                        <path d="M198.930333,429.422789 L207.978333,435.449775" id="Line"></path>
                        <path d="M188.374333,460.05997 L192.898333,471.611694" id="Line-Copy-5"></path>
                        <path d="M249.197,477.638681 L261.261,472.616192" id="Line-Copy-2"></path>
                        <path d="M224.063667,500.742129 L213.005,494.715142" id="Line-Copy-4"></path>
                        <path d="M179.829,376.184408 L188.877,382.211394" id="Line"></path>
                        <path d="M252.715667,407.826087 L257.239667,419.377811" id="Line-Copy-5"></path>
                        <path d="M266.287667,382.211394 L278.351667,373.170915" id="Line-Copy-2"></path>
                        <path d="M227.079667,399.287856 L216.021,393.26087" id="Line-Copy-4"></path>
                        <path d="M178.823667,297.833583 L187.871667,303.86057" id="Line"></path>
                        <path d="M227.582333,345.547226 L232.106333,357.098951" id="Line-Copy-5"></path>
                        <path d="M230.095667,311.896552 L242.159667,306.874063" id="Line-Copy-2"></path>
                        <path d="M216.021,269.707646 L213.005,278.748126" id="Line-Copy-3"></path>
                        <path d="M202.951667,332.991004 L191.893,326.964018" id="Line-Copy-4"></path>
                        <path d="M303.62849,422.305826 L313.833461,429.103485" id="Line"></path>
                        <path d="M291.722691,456.860594 L296.825177,469.889441" id="Line-Copy-5"></path>
                        <path d="M421.178864,466.739354 L426.281349,479.768201" id="Line-Copy-5"></path>
                        <path d="M360.322773,486.732078 L373.929401,481.067362" id="Line-Copy-2"></path>
                        <path d="M380.429439,446.552168 L393.965,446.552168" id="Line-Copy-2"></path>
                        <path d="M331.975632,451.762349 L328.573975,461.958838" id="Line-Copy-3"></path>
                        <path d="M283.218549,507.276567 L270.745807,500.478908" id="Line-Copy-4"></path>
                        <path d="M292.289634,337.335084 L302.494605,344.132744" id="Line"></path>
                        <path d="M377.61781,384.223782 L382.720296,397.25263" id="Line-Copy-5"></path>
                        <path d="M367.126087,356.595119 L380.732714,350.930403" id="Line-Copy-2"></path>
                        <path d="M356.921116,312.410334 L353.519459,322.606823" id="Line-Copy-3"></path>
                        <path d="M337.64506,373.589267 L325.172318,366.791608" id="Line-Copy-4"></path>
                        <path d="M347.283088,404.745206 L352.385573,417.774053" id="Line-Copy-5"></path>
                        <path d="M151.687814,354.480744 L151.687814,339.752482" id="Line-Copy-9"></path>
                        <path d="M261.651636,537.842968 L271.856607,544.640627" id="Line"></path>
                        <path d="M335.921146,583.727168 L341.023632,596.756015" id="Line-Copy-5"></path>
                        <path d="M305.306234,550.871815 L305.306234,567.299492" id="Line-Copy-7"></path>
                        <path d="M336.488089,557.103003 L350.094717,551.438287" id="Line-Copy-2"></path>
                        <path d="M326.283118,512.918217 L322.881461,523.114706" id="Line-Copy-3"></path>
                        <path d="M316.64509,605.25309 L321.747576,618.281937" id="Line-Copy-5"></path>
                        <path d="M252.603636,251.2314 L248.068094,263.693775" id="Line"></path>
                        <path d="M314.400404,298.248543 L319.502889,311.27739" id="Line-Copy-5"></path>
                        <path d="M310.431804,267.092605 L324.038432,261.427889" id="Line-Copy-2"></path>
                        <path d="M294.557405,219.50899 L291.155748,229.705479" id="Line-Copy-3"></path>
                        <path d="M279.816892,290.884412 L267.34415,284.086753" id="Line-Copy-4"></path>
                        <path d="M135.767244,87.6429924 L145.972215,94.4406517" id="Line"></path>
                        <path d="M192.461527,142.024267 L206.068154,136.359551" id="Line-Copy-2"></path>
                        <path d="M169.154179,648.890394 L182.760806,643.225678" id="Line-Copy-2"></path>
                        <path d="M180.601898,71.6598997 L185.704383,84.6887467" id="Line-Copy-5"></path>
                        <path d="M206.196707,109.251227 L216.401678,116.048886" id="Line"></path>
                        <path d="M280.466217,155.135427 L285.568702,168.164274" id="Line-Copy-5"></path>
                        <path d="M350.713373,137.713779 L364.320001,132.049063" id="Line-Copy-16"></path>
                        <path d="M339.663364,98.1409093 L336.261707,108.337398" id="Line-Copy-3"></path>
                        <path d="M251.552133,145.50541 L239.079391,138.707751" id="Line-Copy-4"></path>
                        <path d="M261.190161,176.661349 L266.292646,189.690196" id="Line-Copy-5"></path>
                        <path d="M210.93662,182.220685 L216.039106,195.249532" id="Line-Copy-10"></path>
                        <path d="M375.145213,70.9780981 L385.350183,77.7757574" id="Line"></path>
                        <path d="M420.500638,107.232281 L408.027896,100.434622" id="Line-Copy-4"></path>
                        <path d="M430.138666,138.38822 L435.241152,151.417067" id="Line-Copy-5"></path>
                        <path d="M385.917126,151.983538 L391.019612,165.012385" id="Line-Copy-10"></path>
                        <path d="M310.803879,655.595789 L321.00885,662.393449" id="Line"></path>
                        <path d="M385.640332,674.855824 L399.24696,669.191108" id="Line-Copy-2"></path>
                        <path d="M375.435361,630.671038 L372.033704,640.867527" id="Line-Copy-3"></path>
                        <path d="M355.78723,269.358491 L365.992201,276.156151" id="Line"></path>
                        <path d="M430.623683,288.618526 L444.230311,282.95381" id="Line-Copy-2"></path>
                        <path d="M420.418712,244.43374 L417.017055,254.630229" id="Line-Copy-3"></path>
                        <path d="M396.607113,306.745618 L396.607113,296.549129" id="Line-Copy-4"></path>
                        <path d="M407.034333,339.017991 L415.883169,349.79746" id="Line-Copy-5"></path>
                        <path d="M164.190204,246.307733 L169.29269,259.33658" id="Line-Copy-5"></path>
                        <path d="M219.275771,229.527736 L233.111667,226.514243" id="Line-Copy-15"></path>
                        <path d="M160.221604,212.885908 L173.828232,207.221192" id="Line-Copy-2"></path>
                        <path d="M147.748862,174.365838 L144.347205,184.562327" id="Line-Copy-3"></path>
                        <path d="M334.931879,159.888137 L345.13685,166.685797" id="Line"></path>
                        <path d="M323.02608,194.442906 L328.128565,207.471753" id="Line-Copy-5"></path>
                        <path d="M391.626162,214.269412 L405.232789,208.604696" id="Line-Copy-2"></path>
                        <path d="M363.27902,189.344661 L359.877363,199.54115" id="Line-Copy-3"></path>
                        <path d="M363.27902,240.327106 L350.806278,233.529447" id="Line-Copy-4"></path>
                        <path d="M211.632116,554.557159 L221.837086,561.354819" id="Line"></path>
                        <path d="M199.726316,589.111928 L204.828802,602.140775" id="Line-Copy-5"></path>
                        <path d="M268.326398,608.938434 L281.933026,603.273718" id="Line-Copy-2"></path>
                        <path d="M239.979257,584.013683 L236.5776,594.210172" id="Line-Copy-3"></path>
                        <path d="M239.979257,634.996128 L227.506515,628.198469" id="Line-Copy-4"></path>
                        <path d="M220.323879,658.119022 L230.52885,664.916681" id="Line"></path>
                        <path d="M142.633023,681.864698 L156.23965,676.199981" id="Line-Copy-2"></path>
                        <path d="M161.454394,556.770356 L166.556879,569.799203" id="Line-Copy-5"></path>
                        <path d="M162.021337,530.146191 L175.627965,524.481474" id="Line-Copy-2"></path>
                        <path d="M151.816366,485.961405 L148.414709,496.157894" id="Line-Copy-3"></path>
                        <path d="M140.348957,397.381075 L150.553928,404.178734" id="Line-Copy"></path>
                        <path d="M429.805743,520.397451 L440.010714,527.19511" id="Line-Copy"></path>
                        <path d="M408.828859,599.137004 L415.077,611.236882" id="Line-Copy-5"></path>
                        <path d="M407.022563,560.050463 L420.629191,554.385747" id="Line-Copy-2"></path>
                        <path d="M399.190831,512.466848 L395.789174,522.663337" id="Line-Copy-3"></path>
                        <path d="M371.977575,595.171703 L371.977575,578.177555" id="Line-Copy-6"></path>
                        <path d="M645.930333,429.422789 L654.978333,435.449775" id="Line"></path>
                        <path d="M635.374333,460.05997 L639.898333,471.611694" id="Line-Copy-5"></path>
                        <path d="M696.197,477.638681 L708.261,472.616192" id="Line-Copy-2"></path>
                        <path d="M671.063667,500.742129 L660.005,494.715142" id="Line-Copy-4"></path>
                        <path d="M626.829,376.184408 L635.877,382.211394" id="Line"></path>
                        <path d="M699.715667,407.826087 L704.239667,419.377811" id="Line-Copy-5"></path>
                        <path d="M713.287667,382.211394 L725.351667,373.170915" id="Line-Copy-2"></path>
                        <path d="M674.079667,399.287856 L663.021,393.26087" id="Line-Copy-4"></path>
                        <path d="M625.823667,297.833583 L634.871667,303.86057" id="Line"></path>
                        <path d="M674.582333,345.547226 L679.106333,357.098951" id="Line-Copy-5"></path>
                        <path d="M677.095667,311.896552 L689.159667,306.874063" id="Line-Copy-2"></path>
                        <path d="M663.021,269.707646 L660.005,278.748126" id="Line-Copy-3"></path>
                        <path d="M649.951667,332.991004 L638.893,326.964018" id="Line-Copy-4"></path>
                        <path d="M738.722691,456.860594 L743.825177,469.889441" id="Line-Copy-5"></path>
                        <path d="M730.218549,507.276567 L717.745807,500.478908" id="Line-Copy-4"></path>
                        <path d="M739.289634,337.335084 L749.494605,344.132744" id="Line"></path>
                        <path d="M453.219879,241.97823 L463.42485,248.775889" id="Line"></path>
                        <path d="M530.654675,304.631243 L544.261303,298.966526" id="Line-Copy-2"></path>
                        <path d="M570.340673,328.42305 L576.010101,313.694788" id="Line-Copy-8"></path>
                        <path d="M598.687814,354.480744 L598.687814,339.752482" id="Line-Copy-9"></path>
                        <path d="M520.449704,264.97823 L517.048047,275.174719" id="Line-Copy-3"></path>
                        <path d="M458.692621,328.775889 L446.219879,321.97823" id="Line-Copy-4"></path>
                        <path d="M514.213333,360.711932 L519.315818,373.740779" id="Line-Copy-5"></path>
                        <path d="M708.651636,537.842968 L718.856607,544.640627" id="Line"></path>
                        <path d="M699.603636,251.2314 L695.068094,263.693775" id="Line"></path>
                        <path d="M741.557405,219.50899 L738.155748,229.705479" id="Line-Copy-3"></path>
                        <path d="M726.816892,290.884412 L714.34415,284.086753" id="Line-Copy-4"></path>
                        <path d="M582.767244,87.6429924 L592.972215,94.4406517" id="Line"></path>
                        <path d="M639.461527,142.024267 L653.068154,136.359551" id="Line-Copy-2"></path>
                        <path d="M548.887884,106.480856 L545.486227,116.677345" id="Line-Copy-3"></path>
                        <path d="M562.357303,172.613734 L549.884561,165.816075" id="Line-Copy-4"></path>
                        <path d="M559.459896,594.509119 L569.664867,601.306779" id="Line"></path>
                        <path d="M547.554097,629.063888 L552.656582,642.092735" id="Line-Copy-5"></path>
                        <path d="M616.154179,648.890394 L629.760806,643.225678" id="Line-Copy-2"></path>
                        <path d="M587.807037,623.965643 L584.40538,634.162132" id="Line-Copy-3"></path>
                        <path d="M539.049955,679.479861 L526.577213,672.682202" id="Line-Copy-4"></path>
                        <path d="M627.601898,71.6598997 L632.704383,84.6887467" id="Line-Copy-5"></path>
                        <path d="M653.196707,109.251227 L663.401678,116.048886" id="Line"></path>
                        <path d="M727.466217,155.135427 L732.568702,168.164274" id="Line-Copy-5"></path>
                        <path d="M698.552133,145.50541 L686.079391,138.707751" id="Line-Copy-4"></path>
                        <path d="M708.190161,176.661349 L713.292646,189.690196" id="Line-Copy-5"></path>
                        <path d="M657.93662,182.220685 L663.039106,195.249532" id="Line-Copy-10"></path>
                        <path d="M530.11738,199.290589 L540.322351,206.088248" id="Line"></path>
                        <path d="M611.190204,246.307733 L616.29269,259.33658" id="Line-Copy-5"></path>
                        <path d="M666.275771,229.527736 L680.111667,226.514243" id="Line-Copy-15"></path>
                        <path d="M573.771978,212.319436 L573.771978,228.747113" id="Line-Copy-7"></path>
                        <path d="M500.524323,212.974779 L494.125,229.527737" id="Line-Copy-11"></path>
                        <path d="M607.221604,212.885908 L620.828232,207.221192" id="Line-Copy-2"></path>
                        <path d="M594.748862,174.365838 L591.347205,184.562327" id="Line-Copy-3"></path>
                        <path d="M579.441406,261.035995 L584.543892,274.064842" id="Line-Copy-5"></path>
                        <path d="M501.358438,319.799367 L506.460923,332.828214" id="Line-Copy-17"></path>
                        <path d="M449.166546,84.9917696 L459.371517,91.7894289" id="Line"></path>
                        <path d="M510.963314,132.008913 L516.065799,145.03776" id="Line-Copy-5"></path>
                        <path d="M506.994714,100.852975 L520.601342,95.1882586" id="Line-Copy-2"></path>
                        <path d="M472.639288,185.067019 L460.166546,178.269359" id="Line-Copy-4"></path>
                        <path d="M466.174831,516.784697 L476.379801,523.582356" id="Line"></path>
                        <path d="M454.269031,551.339465 L459.371517,564.368312" id="Line-Copy-5"></path>
                        <path d="M522.869113,571.165971 L536.475741,565.501255" id="Line-Copy-2"></path>
                        <path d="M494.521972,546.241221 L491.120315,556.437709" id="Line-Copy-3"></path>
                        <path d="M494.521972,597.223665 L482.04923,590.426006" id="Line-Copy-4"></path>
                        <path d="M512.221,633.335832 L499.151667,639.362819" id="Line-Copy-12"></path>
                        <path d="M658.632116,554.557159 L668.837086,561.354819" id="Line"></path>
                        <path d="M646.726316,589.111928 L651.828802,602.140775" id="Line-Copy-5"></path>
                        <path d="M715.326398,608.938434 L728.933026,603.273718" id="Line-Copy-2"></path>
                        <path d="M686.979257,584.013683 L683.5776,594.210172" id="Line-Copy-3"></path>
                        <path d="M686.979257,634.996128 L674.506515,628.198469" id="Line-Copy-4"></path>
                        <path d="M459.219879,375.855154 L469.42485,382.652813" id="Line"></path>
                        <path d="M447.31408,410.409922 L452.416565,423.438769" id="Line-Copy-5"></path>
                        <path d="M515.914162,430.236428 L529.520789,424.571712" id="Line-Copy-2"></path>
                        <path d="M487.56702,405.311678 L481.055667,416.364318" id="Line-Copy-3"></path>
                        <path d="M487.56702,456.294122 L475.094278,449.496463" id="Line-Copy-4"></path>
                        <path d="M667.323879,658.119022 L677.52885,664.916681" id="Line"></path>
                        <path d="M589.633023,681.864698 L603.23965,676.199981" id="Line-Copy-2"></path>
                        <path d="M526.247685,521.082645 L536.452655,527.880304" id="Line"></path>
                        <path d="M608.454394,556.770356 L613.556879,569.799203" id="Line-Copy-5"></path>
                        <path d="M609.021337,530.146191 L622.627965,524.481474" id="Line-Copy-2"></path>
                        <path d="M598.816366,485.961405 L595.414709,496.157894" id="Line-Copy-3"></path>
                        <path d="M579.54031,547.140339 L567.067568,540.342679" id="Line-Copy-4"></path>
                        <path d="M587.348957,397.381075 L597.553928,404.178734" id="Line-Copy"></path>
                        <path d="M566.372073,476.120629 L571.474558,489.149476" id="Line-Copy-5"></path>
                        <path d="M572.608444,437.034088 L586.215072,431.369372" id="Line-Copy-2"></path>
                        <path d="M556.734045,389.450472 L553.332388,399.646961" id="Line-Copy-3"></path>
                        <path d="M529.520789,472.155327 L529.520789,455.161179" id="Line-Copy-6"></path>
                    </g>
                </g>
            </g>
        </g>
    </g>
</svg>