<?xml version="1.0" encoding="utf-8"?>
<!-- Generator: Adobe Illustrator 19.1.0, SVG Export Plug-In . SVG Version: 6.00 Build 0)  -->
<svg version="1.1" id="Layer_1" xmlns="http://www.w3.org/2000/svg" xmlns:xlink="http://www.w3.org/1999/xlink" x="0px" y="0px"
	 viewBox="0 0 75 75" style="enable-background:new 0 0 75 75;" xml:space="preserve">
<path d="M9.7,16.7v41.7h55.6V16.7H9.7z M70.2,37.5c0-1-0.9-1.9-1.9-1.9c-1,0-1.9,0.9-1.9,1.9s0.9,1.9,1.9,1.9
	C69.3,39.4,70.2,38.5,70.2,37.5z M71.2,17.8v39.5c0,1.8-1.5,3.3-3.3,3.3H7c-1.8,0-3.3-1.5-3.3-3.3V17.8c0-1.8,1.5-3.3,3.3-3.3h61
	C69.8,14.5,71.2,15.9,71.2,17.8z"/>
</svg>
