<?xml version="1.0" encoding="utf-8"?>
<!-- Generator: Adobe Illustrator 19.1.0, SVG Export Plug-In . SVG Version: 6.00 Build 0)  -->
<svg version="1.1" id="Layer_1" xmlns="http://www.w3.org/2000/svg" xmlns:xlink="http://www.w3.org/1999/xlink" x="0px" y="0px"
	 viewBox="0 0 75 75" style="enable-background:new 0 0 75 75;" xml:space="preserve">
<path d="M40.1,69c0,1.4-1.2,2.6-2.6,2.6s-2.6-1.2-2.6-2.6s1.2-2.6,2.6-2.6S40.1,67.6,40.1,69z M33.8,6c0-0.8,0.7-1.5,1.5-1.5h4.5
	c0.8,0,1.5,0.7,1.5,1.5s-0.7,1.5-1.5,1.5h-4.5C34.4,7.5,33.8,6.8,33.8,6z M21.8,12h31.5v51H21.8V12z M51,0H24
	c-2.9,0-5.2,2.3-5.2,5.2v64.5c0,2.9,2.3,5.2,5.2,5.2h27c2.9,0,5.2-2.3,5.2-5.2V5.2C56.2,2.3,53.9,0,51,0z"/>
</svg>
