<?xml version="1.0" encoding="utf-8"?>
<!-- Generator: Adobe Illustrator 19.1.0, SVG Export Plug-In . SVG Version: 6.00 Build 0)  -->
<svg version="1.1" id="Layer_1" xmlns="http://www.w3.org/2000/svg" xmlns:xlink="http://www.w3.org/1999/xlink" x="0px" y="0px"
	 viewBox="0 0 75 75" style="enable-background:new 0 0 75 75;" xml:space="preserve">
<path d="M63.4,20.2H11.6v32.4h51.9V20.2z M32.7,55.2c0,0.4,0.3,0.7,0.7,0.7h8.1c0.4,0,0.7-0.3,0.7-0.7v0L32.7,55.2L32.7,55.2z
	 M69.4,57.1H5.6c0,0-1.8-0.3-1.8-0.6c0-0.6,0-1.3,0-1.3h5.9v-35c0-1.3,1-2.3,2.3-2.3h51.1c1.3,0,2.3,1,2.3,2.3v35h5.9
	c0,0,0,0.7,0,1.3C71.2,56.8,69.4,57.1,69.4,57.1z"/>
</svg>
