<?xml version="1.0" encoding="utf-8"?>
<!-- Generator: Adobe Illustrator 19.1.0, SVG Export Plug-In . SVG Version: 6.00 Build 0)  -->
<svg version="1.1" id="Layer_1" xmlns="http://www.w3.org/2000/svg" xmlns:xlink="http://www.w3.org/1999/xlink" x="0px" y="0px"
	 viewBox="0 0 75 75" style="enable-background:new 0 0 75 75;" xml:space="preserve">
<path d="M71.7,52.8H3.3c-0.3,0-0.6-0.3-0.6-0.6V13.8c0-0.3,0.3-0.6,0.6-0.6h68.3c0.3,0,0.6,0.3,0.6,0.6v38.3
	C72.2,52.5,72,52.8,71.7,52.8z M72.3,12H3.1c-0.9,0-1.6,0.7-1.6,1.6v40.7c0,0.6,0.5,1.1,1.1,1.1h32.6v3H24.8v1.2h25.5v-1.2H39.8v-3
	h32.6c0.6,0,1.1-0.5,1.1-1.1V13.2C73.5,12.5,73,12,72.3,12z"/>
</svg>
