<?xml version="1.0" encoding="UTF-8" standalone="no"?>
<svg width="600px" height="600px" viewBox="0 0 600 600" version="1.1" xmlns="http://www.w3.org/2000/svg" xmlns:xlink="http://www.w3.org/1999/xlink">
    <!-- Generator: Sketch 3.7.2 (28276) - http://www.bohemiancoding.com/sketch -->
    <title>tasky bg</title>
    <desc>Created with Sketch.</desc>
    <defs>
        <rect id="path-1" x="0" y="0" width="2199" height="898.084248"></rect>
        <rect id="path-3" x="0.882607554" y="0" width="1107.52555" height="1073"></rect>
    </defs>
    <g id="Page-1" stroke="none" stroke-width="1" fill="none" fill-rule="evenodd">
        <g id="tasky-bg">
            <rect id="Rectangle-12114" fill="#FFFFFF" x="0" y="0" width="600" height="600"></rect>
            <g id="Group-8-Copy-2" opacity="0.9" transform="translate(-799.000000, -148.000000)">
                <g id="Group-29">
                    <mask id="mask-2" fill="white">
                        <use xlink:href="#path-1"></use>
                    </mask>
                    <use id="Mask" fill="#1882FF" xlink:href="#path-1"></use>
                    <g id="table" mask="url(#mask-2)">
                        <g transform="translate(563.179619, 0.000000)">
                            <mask id="mask-4" fill="white">
                                <use xlink:href="#path-3"></use>
                            </mask>
                            <g id="Rectangle-807" stroke="none" fill="none"></g>
                            <path d="M-715.675217,1140.5972 L1673.99746,1140.5972 L1673.99746,1142.58536 L-715.675217,1142.58536 L-715.675217,1140.5972 Z M-715.675217,1059.08293 L1673.99746,1059.08293 L1673.99746,1061.07108 L-715.675217,1061.07108 L-715.675217,1059.08293 Z M-715.675217,977.568654 L1673.99746,977.568654 L1673.99746,979.556807 L-715.675217,979.556807 L-715.675217,977.568654 Z M-715.675217,896.054379 L1673.99746,896.054379 L1673.99746,898.042533 L-715.675217,898.042533 L-715.675217,896.054379 Z M-715.675217,814.540105 L1673.99746,814.540105 L1673.99746,816.528258 L-715.675217,816.528258 L-715.675217,814.540105 Z M-715.675217,733.02583 L1673.99746,733.02583 L1673.99746,735.013983 L-715.675217,735.013983 L-715.675217,733.02583 Z M-715.675217,651.511556 L1673.99746,651.511556 L1673.99746,653.499709 L-715.675217,653.499709 L-715.675217,651.511556 Z M-715.675217,569.997281 L1673.99746,569.997281 L1673.99746,571.985434 L-715.675217,571.985434 L-715.675217,569.997281 Z M-715.675217,488.483006 L1673.99746,488.483006 L1673.99746,490.471159 L-715.675217,490.471159 L-715.675217,488.483006 Z M-715.675217,406.968732 L1673.99746,406.968732 L1673.99746,408.956885 L-715.675217,408.956885 L-715.675217,406.968732 Z M-715.675217,325.454457 L1673.99746,325.454457 L1673.99746,327.44261 L-715.675217,327.44261 L-715.675217,325.454457 Z M-715.675217,243.940183 L1673.99746,243.940183 L1673.99746,245.928336 L-715.675217,245.928336 L-715.675217,243.940183 Z M-715.675217,162.425908 L1673.99746,162.425908 L1673.99746,164.414061 L-715.675217,164.414061 L-715.675217,162.425908 Z M-715.675217,80.9116333 L1673.99746,80.9116333 L1673.99746,82.8997864 L-715.675217,82.8997864 L-715.675217,80.9116333 Z M-715.675217,-0.60264129 L1673.99746,-0.60264129 L1673.99746,1.38551175 L-715.675217,1.38551175 L-715.675217,-0.60264129 Z M-715.675217,-82.1169159 L1673.99746,-82.1169159 L1673.99746,-80.1287629 L-715.675217,-80.1287629 L-715.675217,-82.1169159 Z" id="Combined-Shape" stroke="none" fill="#FFFFFF" fill-rule="evenodd" opacity="0.119181437" mask="url(#mask-4)"></path>
                            <path d="M1878.59953,-149.714119 L1880.58596,-149.714119 L1880.58596,1073 L1878.59953,1073 L1878.59953,-149.714119 Z M1797.15599,-149.714119 L1799.14242,-149.714119 L1799.14242,1073 L1797.15599,1073 L1797.15599,-149.714119 Z M1715.71245,-149.714119 L1717.69888,-149.714119 L1717.69888,1073 L1715.71245,1073 L1715.71245,-149.714119 Z M1634.26891,-149.714119 L1636.25534,-149.714119 L1636.25534,1073 L1634.26891,1073 L1634.26891,-149.714119 Z M1552.82537,-149.714119 L1554.81179,-149.714119 L1554.81179,1073 L1552.82537,1073 L1552.82537,-149.714119 Z M1471.38183,-149.714119 L1473.36825,-149.714119 L1473.36825,1073 L1471.38183,1073 L1471.38183,-149.714119 Z M1389.93828,-149.714119 L1391.92471,-149.714119 L1391.92471,1073 L1389.93828,1073 L1389.93828,-149.714119 Z M1308.49474,-149.714119 L1310.48117,-149.714119 L1310.48117,1073 L1308.49474,1073 L1308.49474,-149.714119 Z M1227.0512,-149.714119 L1229.03763,-149.714119 L1229.03763,1073 L1227.0512,1073 L1227.0512,-149.714119 Z M1145.60766,-149.714119 L1147.59409,-149.714119 L1147.59409,1073 L1145.60766,1073 L1145.60766,-149.714119 Z M1064.16412,-149.714119 L1066.15055,-149.714119 L1066.15055,1073 L1064.16412,1073 L1064.16412,-149.714119 Z M982.720579,-149.714119 L984.707007,-149.714119 L984.707007,1073 L982.720579,1073 L982.720579,-149.714119 Z M901.277038,-149.714119 L903.263466,-149.714119 L903.263466,1073 L901.277038,1073 L901.277038,-149.714119 Z M819.833497,-149.714119 L821.819925,-149.714119 L821.819925,1073 L819.833497,1073 L819.833497,-149.714119 Z M738.389956,-149.714119 L740.376384,-149.714119 L740.376384,1073 L738.389956,1073 L738.389956,-149.714119 Z M656.946415,-149.714119 L658.932842,-149.714119 L658.932842,1073 L656.946415,1073 L656.946415,-149.714119 Z M575.502874,-149.714119 L577.489301,-149.714119 L577.489301,1073 L575.502874,1073 L575.502874,-149.714119 Z M494.059332,-149.714119 L496.04576,-149.714119 L496.04576,1073 L494.059332,1073 L494.059332,-149.714119 Z M412.615791,-149.714119 L414.602219,-149.714119 L414.602219,1073 L412.615791,1073 L412.615791,-149.714119 Z M331.17225,-149.714119 L333.158678,-149.714119 L333.158678,1073 L331.17225,1073 L331.17225,-149.714119 Z M249.728709,-149.714119 L251.715137,-149.714119 L251.715137,1073 L249.728709,1073 L249.728709,-149.714119 Z M168.285168,-149.714119 L170.271596,-149.714119 L170.271596,1073 L168.285168,1073 L168.285168,-149.714119 Z M86.8416268,-149.714119 L88.8280547,-149.714119 L88.8280547,1073 L86.8416268,1073 L86.8416268,-149.714119 Z M5.39808573,-149.714119 L7.38451356,-149.714119 L7.38451356,1073 L5.39808573,1073 L5.39808573,-149.714119 Z M-76.0454554,-149.714119 L-74.0590276,-149.714119 L-74.0590276,1073 L-76.0454554,1073 L-76.0454554,-149.714119 Z M-157.488996,-149.714119 L-155.502569,-149.714119 L-155.502569,1073 L-157.488996,1073 L-157.488996,-149.714119 Z M-238.932538,-149.714119 L-236.94611,-149.714119 L-236.94611,1073 L-238.932538,1073 L-238.932538,-149.714119 Z M-320.376079,-149.714119 L-318.389651,-149.714119 L-318.389651,1073 L-320.376079,1073 L-320.376079,-149.714119 Z M-401.81962,-149.714119 L-399.833192,-149.714119 L-399.833192,1073 L-401.81962,1073 L-401.81962,-149.714119 Z M-483.263161,-149.714119 L-481.276733,-149.714119 L-481.276733,1073 L-483.263161,1073 L-483.263161,-149.714119 Z M-564.706702,-149.714119 L-562.720274,-149.714119 L-562.720274,1073 L-564.706702,1073 L-564.706702,-149.714119 Z" id="Combined-Shape" stroke="none" fill="#FFFFFF" fill-rule="evenodd" opacity="0.119181437" mask="url(#mask-4)"></path>
                            <g id="Group-15" opacity="0.296898321" stroke="none" stroke-width="1" fill="none" fill-rule="evenodd" mask="url(#mask-4)">
                                <g transform="translate(-568.679558, -4.578947)" id="Combined-Shape" fill="#FFFFFF">
                                    <path d="M818.407404,1063.66188 L814.435411,1063.66188 L814.435411,1065.65003 L818.407404,1065.65003 L818.407404,1069.62202 L820.395557,1069.62202 L820.395557,1065.65003 L824.36755,1065.65003 L824.36755,1063.66188 L820.395557,1063.66188 L820.395557,1059.68988 L818.407404,1059.68988 L818.407404,1063.66188 Z M818.407404,982.147601 L814.435411,982.147601 L814.435411,984.135755 L818.407404,984.135755 L818.407404,988.107748 L820.395557,988.107748 L820.395557,984.135755 L824.36755,984.135755 L824.36755,982.147601 L820.395557,982.147601 L820.395557,978.175608 L818.407404,978.175608 L818.407404,982.147601 Z M818.407404,900.633327 L814.435411,900.633327 L814.435411,902.62148 L818.407404,902.62148 L818.407404,906.593473 L820.395557,906.593473 L820.395557,902.62148 L824.36755,902.62148 L824.36755,900.633327 L820.395557,900.633327 L820.395557,896.661334 L818.407404,896.661334 L818.407404,900.633327 Z M818.407404,819.119052 L814.435411,819.119052 L814.435411,821.107205 L818.407404,821.107205 L818.407404,825.079198 L820.395557,825.079198 L820.395557,821.107205 L824.36755,821.107205 L824.36755,819.119052 L820.395557,819.119052 L820.395557,815.147059 L818.407404,815.147059 L818.407404,819.119052 Z M818.407404,737.604778 L814.435411,737.604778 L814.435411,739.592931 L818.407404,739.592931 L818.407404,743.564924 L820.395557,743.564924 L820.395557,739.592931 L824.36755,739.592931 L824.36755,737.604778 L820.395557,737.604778 L820.395557,733.632785 L818.407404,733.632785 L818.407404,737.604778 Z M818.407404,656.090503 L814.435411,656.090503 L814.435411,658.078656 L818.407404,658.078656 L818.407404,662.050649 L820.395557,662.050649 L820.395557,658.078656 L824.36755,658.078656 L824.36755,656.090503 L820.395557,656.090503 L820.395557,652.11851 L818.407404,652.11851 L818.407404,656.090503 Z M818.407404,574.576228 L814.435411,574.576228 L814.435411,576.564381 L818.407404,576.564381 L818.407404,580.536374 L820.395557,580.536374 L820.395557,576.564381 L824.36755,576.564381 L824.36755,574.576228 L820.395557,574.576228 L820.395557,570.604235 L818.407404,570.604235 L818.407404,574.576228 Z M818.407404,493.061954 L814.435411,493.061954 L814.435411,495.050107 L818.407404,495.050107 L818.407404,499.0221 L820.395557,499.0221 L820.395557,495.050107 L824.36755,495.050107 L824.36755,493.061954 L820.395557,493.061954 L820.395557,489.089961 L818.407404,489.089961 L818.407404,493.061954 Z M818.407404,411.547679 L814.435411,411.547679 L814.435411,413.535832 L818.407404,413.535832 L818.407404,417.507825 L820.395557,417.507825 L820.395557,413.535832 L824.36755,413.535832 L824.36755,411.547679 L820.395557,411.547679 L820.395557,407.575686 L818.407404,407.575686 L818.407404,411.547679 Z M818.407404,330.033405 L814.435411,330.033405 L814.435411,332.021558 L818.407404,332.021558 L818.407404,335.993551 L820.395557,335.993551 L820.395557,332.021558 L824.36755,332.021558 L824.36755,330.033405 L820.395557,330.033405 L820.395557,326.061411 L818.407404,326.061411 L818.407404,330.033405 Z M818.407404,248.51913 L814.435411,248.51913 L814.435411,250.507283 L818.407404,250.507283 L818.407404,254.479276 L820.395557,254.479276 L820.395557,250.507283 L824.36755,250.507283 L824.36755,248.51913 L820.395557,248.51913 L820.395557,244.547137 L818.407404,244.547137 L818.407404,248.51913 Z M818.407404,167.004855 L814.435411,167.004855 L814.435411,168.993008 L818.407404,168.993008 L818.407404,172.965001 L820.395557,172.965001 L820.395557,168.993008 L824.36755,168.993008 L824.36755,167.004855 L820.395557,167.004855 L820.395557,163.032862 L818.407404,163.032862 L818.407404,167.004855 Z M818.407404,3.97630608 L814.435411,3.97630608 L814.435411,5.96445912 L818.407404,5.96445912 L818.407404,9.93645218 L820.395557,9.93645218 L820.395557,5.96445912 L824.36755,5.96445912 L824.36755,3.97630608 L820.395557,3.97630608 L820.395557,0.00431301856 L818.407404,0.00431301856 L818.407404,3.97630608 Z M818.407404,85.4905807 L814.435411,85.4905807 L814.435411,87.4787337 L818.407404,87.4787337 L818.407404,91.4507268 L820.395557,91.4507268 L820.395557,87.4787337 L824.36755,87.4787337 L824.36755,85.4905807 L820.395557,85.4905807 L820.395557,81.5185876 L818.407404,81.5185876 L818.407404,85.4905807 Z"></path>
                                    <path d="M899.850945,1063.66188 L895.878952,1063.66188 L895.878952,1065.65003 L899.850945,1065.65003 L899.850945,1069.62202 L901.839098,1069.62202 L901.839098,1065.65003 L905.811091,1065.65003 L905.811091,1063.66188 L901.839098,1063.66188 L901.839098,1059.68988 L899.850945,1059.68988 L899.850945,1063.66188 Z M899.850945,982.147601 L895.878952,982.147601 L895.878952,984.135755 L899.850945,984.135755 L899.850945,988.107748 L901.839098,988.107748 L901.839098,984.135755 L905.811091,984.135755 L905.811091,982.147601 L901.839098,982.147601 L901.839098,978.175608 L899.850945,978.175608 L899.850945,982.147601 Z M899.850945,900.633327 L895.878952,900.633327 L895.878952,902.62148 L899.850945,902.62148 L899.850945,906.593473 L901.839098,906.593473 L901.839098,902.62148 L905.811091,902.62148 L905.811091,900.633327 L901.839098,900.633327 L901.839098,896.661334 L899.850945,896.661334 L899.850945,900.633327 Z M899.850945,819.119052 L895.878952,819.119052 L895.878952,821.107205 L899.850945,821.107205 L899.850945,825.079198 L901.839098,825.079198 L901.839098,821.107205 L905.811091,821.107205 L905.811091,819.119052 L901.839098,819.119052 L901.839098,815.147059 L899.850945,815.147059 L899.850945,819.119052 Z M899.850945,737.604778 L895.878952,737.604778 L895.878952,739.592931 L899.850945,739.592931 L899.850945,743.564924 L901.839098,743.564924 L901.839098,739.592931 L905.811091,739.592931 L905.811091,737.604778 L901.839098,737.604778 L901.839098,733.632785 L899.850945,733.632785 L899.850945,737.604778 Z M899.850945,656.090503 L895.878952,656.090503 L895.878952,658.078656 L899.850945,658.078656 L899.850945,662.050649 L901.839098,662.050649 L901.839098,658.078656 L905.811091,658.078656 L905.811091,656.090503 L901.839098,656.090503 L901.839098,652.11851 L899.850945,652.11851 L899.850945,656.090503 Z M899.850945,574.576228 L895.878952,574.576228 L895.878952,576.564381 L899.850945,576.564381 L899.850945,580.536374 L901.839098,580.536374 L901.839098,576.564381 L905.811091,576.564381 L905.811091,574.576228 L901.839098,574.576228 L901.839098,570.604235 L899.850945,570.604235 L899.850945,574.576228 Z M899.850945,493.061954 L895.878952,493.061954 L895.878952,495.050107 L899.850945,495.050107 L899.850945,499.0221 L901.839098,499.0221 L901.839098,495.050107 L905.811091,495.050107 L905.811091,493.061954 L901.839098,493.061954 L901.839098,489.089961 L899.850945,489.089961 L899.850945,493.061954 Z M899.850945,411.547679 L895.878952,411.547679 L895.878952,413.535832 L899.850945,413.535832 L899.850945,417.507825 L901.839098,417.507825 L901.839098,413.535832 L905.811091,413.535832 L905.811091,411.547679 L901.839098,411.547679 L901.839098,407.575686 L899.850945,407.575686 L899.850945,411.547679 Z M899.850945,330.033405 L895.878952,330.033405 L895.878952,332.021558 L899.850945,332.021558 L899.850945,335.993551 L901.839098,335.993551 L901.839098,332.021558 L905.811091,332.021558 L905.811091,330.033405 L901.839098,330.033405 L901.839098,326.061411 L899.850945,326.061411 L899.850945,330.033405 Z M899.850945,248.51913 L895.878952,248.51913 L895.878952,250.507283 L899.850945,250.507283 L899.850945,254.479276 L901.839098,254.479276 L901.839098,250.507283 L905.811091,250.507283 L905.811091,248.51913 L901.839098,248.51913 L901.839098,244.547137 L899.850945,244.547137 L899.850945,248.51913 Z M899.850945,167.004855 L895.878952,167.004855 L895.878952,168.993008 L899.850945,168.993008 L899.850945,172.965001 L901.839098,172.965001 L901.839098,168.993008 L905.811091,168.993008 L905.811091,167.004855 L901.839098,167.004855 L901.839098,163.032862 L899.850945,163.032862 L899.850945,167.004855 Z M899.850945,3.97630608 L895.878952,3.97630608 L895.878952,5.96445912 L899.850945,5.96445912 L899.850945,9.93645218 L901.839098,9.93645218 L901.839098,5.96445912 L905.811091,5.96445912 L905.811091,3.97630608 L901.839098,3.97630608 L901.839098,0.00431301856 L899.850945,0.00431301856 L899.850945,3.97630608 Z M899.850945,85.4905807 L895.878952,85.4905807 L895.878952,87.4787337 L899.850945,87.4787337 L899.850945,91.4507268 L901.839098,91.4507268 L901.839098,87.4787337 L905.811091,87.4787337 L905.811091,85.4905807 L901.839098,85.4905807 L901.839098,81.5185876 L899.850945,81.5185876 L899.850945,85.4905807 Z"></path>
                                    <path d="M981.294486,1063.66188 L977.322493,1063.66188 L977.322493,1065.65003 L981.294486,1065.65003 L981.294486,1069.62202 L983.282639,1069.62202 L983.282639,1065.65003 L987.254633,1065.65003 L987.254633,1063.66188 L983.282639,1063.66188 L983.282639,1059.68988 L981.294486,1059.68988 L981.294486,1063.66188 Z M981.294486,982.147601 L977.322493,982.147601 L977.322493,984.135755 L981.294486,984.135755 L981.294486,988.107748 L983.282639,988.107748 L983.282639,984.135755 L987.254633,984.135755 L987.254633,982.147601 L983.282639,982.147601 L983.282639,978.175608 L981.294486,978.175608 L981.294486,982.147601 Z M981.294486,900.633327 L977.322493,900.633327 L977.322493,902.62148 L981.294486,902.62148 L981.294486,906.593473 L983.282639,906.593473 L983.282639,902.62148 L987.254633,902.62148 L987.254633,900.633327 L983.282639,900.633327 L983.282639,896.661334 L981.294486,896.661334 L981.294486,900.633327 Z M981.294486,819.119052 L977.322493,819.119052 L977.322493,821.107205 L981.294486,821.107205 L981.294486,825.079198 L983.282639,825.079198 L983.282639,821.107205 L987.254633,821.107205 L987.254633,819.119052 L983.282639,819.119052 L983.282639,815.147059 L981.294486,815.147059 L981.294486,819.119052 Z M981.294486,737.604778 L977.322493,737.604778 L977.322493,739.592931 L981.294486,739.592931 L981.294486,743.564924 L983.282639,743.564924 L983.282639,739.592931 L987.254633,739.592931 L987.254633,737.604778 L983.282639,737.604778 L983.282639,733.632785 L981.294486,733.632785 L981.294486,737.604778 Z M981.294486,656.090503 L977.322493,656.090503 L977.322493,658.078656 L981.294486,658.078656 L981.294486,662.050649 L983.282639,662.050649 L983.282639,658.078656 L987.254633,658.078656 L987.254633,656.090503 L983.282639,656.090503 L983.282639,652.11851 L981.294486,652.11851 L981.294486,656.090503 Z M981.294486,574.576228 L977.322493,574.576228 L977.322493,576.564381 L981.294486,576.564381 L981.294486,580.536374 L983.282639,580.536374 L983.282639,576.564381 L987.254633,576.564381 L987.254633,574.576228 L983.282639,574.576228 L983.282639,570.604235 L981.294486,570.604235 L981.294486,574.576228 Z M981.294486,493.061954 L977.322493,493.061954 L977.322493,495.050107 L981.294486,495.050107 L981.294486,499.0221 L983.282639,499.0221 L983.282639,495.050107 L987.254633,495.050107 L987.254633,493.061954 L983.282639,493.061954 L983.282639,489.089961 L981.294486,489.089961 L981.294486,493.061954 Z M981.294486,411.547679 L977.322493,411.547679 L977.322493,413.535832 L981.294486,413.535832 L981.294486,417.507825 L983.282639,417.507825 L983.282639,413.535832 L987.254633,413.535832 L987.254633,411.547679 L983.282639,411.547679 L983.282639,407.575686 L981.294486,407.575686 L981.294486,411.547679 Z M981.294486,330.033405 L977.322493,330.033405 L977.322493,332.021558 L981.294486,332.021558 L981.294486,335.993551 L983.282639,335.993551 L983.282639,332.021558 L987.254633,332.021558 L987.254633,330.033405 L983.282639,330.033405 L983.282639,326.061411 L981.294486,326.061411 L981.294486,330.033405 Z M981.294486,248.51913 L977.322493,248.51913 L977.322493,250.507283 L981.294486,250.507283 L981.294486,254.479276 L983.282639,254.479276 L983.282639,250.507283 L987.254633,250.507283 L987.254633,248.51913 L983.282639,248.51913 L983.282639,244.547137 L981.294486,244.547137 L981.294486,248.51913 Z M981.294486,167.004855 L977.322493,167.004855 L977.322493,168.993008 L981.294486,168.993008 L981.294486,172.965001 L983.282639,172.965001 L983.282639,168.993008 L987.254633,168.993008 L987.254633,167.004855 L983.282639,167.004855 L983.282639,163.032862 L981.294486,163.032862 L981.294486,167.004855 Z M981.294486,3.97630608 L977.322493,3.97630608 L977.322493,5.96445912 L981.294486,5.96445912 L981.294486,9.93645218 L983.282639,9.93645218 L983.282639,5.96445912 L987.254633,5.96445912 L987.254633,3.97630608 L983.282639,3.97630608 L983.282639,0.00431301856 L981.294486,0.00431301856 L981.294486,3.97630608 Z M981.294486,85.4905807 L977.322493,85.4905807 L977.322493,87.4787337 L981.294486,87.4787337 L981.294486,91.4507268 L983.282639,91.4507268 L983.282639,87.4787337 L987.254633,87.4787337 L987.254633,85.4905807 L983.282639,85.4905807 L983.282639,81.5185876 L981.294486,81.5185876 L981.294486,85.4905807 Z"></path>
                                    <path d="M1062.73803,1063.66188 L1058.76603,1063.66188 L1058.76603,1065.65003 L1062.73803,1065.65003 L1062.73803,1069.62202 L1064.72618,1069.62202 L1064.72618,1065.65003 L1068.69817,1065.65003 L1068.69817,1063.66188 L1064.72618,1063.66188 L1064.72618,1059.68988 L1062.73803,1059.68988 L1062.73803,1063.66188 Z M1062.73803,982.147601 L1058.76603,982.147601 L1058.76603,984.135755 L1062.73803,984.135755 L1062.73803,988.107748 L1064.72618,988.107748 L1064.72618,984.135755 L1068.69817,984.135755 L1068.69817,982.147601 L1064.72618,982.147601 L1064.72618,978.175608 L1062.73803,978.175608 L1062.73803,982.147601 Z M1062.73803,900.633327 L1058.76603,900.633327 L1058.76603,902.62148 L1062.73803,902.62148 L1062.73803,906.593473 L1064.72618,906.593473 L1064.72618,902.62148 L1068.69817,902.62148 L1068.69817,900.633327 L1064.72618,900.633327 L1064.72618,896.661334 L1062.73803,896.661334 L1062.73803,900.633327 Z M1062.73803,819.119052 L1058.76603,819.119052 L1058.76603,821.107205 L1062.73803,821.107205 L1062.73803,825.079198 L1064.72618,825.079198 L1064.72618,821.107205 L1068.69817,821.107205 L1068.69817,819.119052 L1064.72618,819.119052 L1064.72618,815.147059 L1062.73803,815.147059 L1062.73803,819.119052 Z M1062.73803,737.604778 L1058.76603,737.604778 L1058.76603,739.592931 L1062.73803,739.592931 L1062.73803,743.564924 L1064.72618,743.564924 L1064.72618,739.592931 L1068.69817,739.592931 L1068.69817,737.604778 L1064.72618,737.604778 L1064.72618,733.632785 L1062.73803,733.632785 L1062.73803,737.604778 Z M1062.73803,656.090503 L1058.76603,656.090503 L1058.76603,658.078656 L1062.73803,658.078656 L1062.73803,662.050649 L1064.72618,662.050649 L1064.72618,658.078656 L1068.69817,658.078656 L1068.69817,656.090503 L1064.72618,656.090503 L1064.72618,652.11851 L1062.73803,652.11851 L1062.73803,656.090503 Z M1062.73803,574.576228 L1058.76603,574.576228 L1058.76603,576.564381 L1062.73803,576.564381 L1062.73803,580.536374 L1064.72618,580.536374 L1064.72618,576.564381 L1068.69817,576.564381 L1068.69817,574.576228 L1064.72618,574.576228 L1064.72618,570.604235 L1062.73803,570.604235 L1062.73803,574.576228 Z M1062.73803,493.061954 L1058.76603,493.061954 L1058.76603,495.050107 L1062.73803,495.050107 L1062.73803,499.0221 L1064.72618,499.0221 L1064.72618,495.050107 L1068.69817,495.050107 L1068.69817,493.061954 L1064.72618,493.061954 L1064.72618,489.089961 L1062.73803,489.089961 L1062.73803,493.061954 Z M1062.73803,411.547679 L1058.76603,411.547679 L1058.76603,413.535832 L1062.73803,413.535832 L1062.73803,417.507825 L1064.72618,417.507825 L1064.72618,413.535832 L1068.69817,413.535832 L1068.69817,411.547679 L1064.72618,411.547679 L1064.72618,407.575686 L1062.73803,407.575686 L1062.73803,411.547679 Z M1062.73803,330.033405 L1058.76603,330.033405 L1058.76603,332.021558 L1062.73803,332.021558 L1062.73803,335.993551 L1064.72618,335.993551 L1064.72618,332.021558 L1068.69817,332.021558 L1068.69817,330.033405 L1064.72618,330.033405 L1064.72618,326.061411 L1062.73803,326.061411 L1062.73803,330.033405 Z M1062.73803,248.51913 L1058.76603,248.51913 L1058.76603,250.507283 L1062.73803,250.507283 L1062.73803,254.479276 L1064.72618,254.479276 L1064.72618,250.507283 L1068.69817,250.507283 L1068.69817,248.51913 L1064.72618,248.51913 L1064.72618,244.547137 L1062.73803,244.547137 L1062.73803,248.51913 Z M1062.73803,167.004855 L1058.76603,167.004855 L1058.76603,168.993008 L1062.73803,168.993008 L1062.73803,172.965001 L1064.72618,172.965001 L1064.72618,168.993008 L1068.69817,168.993008 L1068.69817,167.004855 L1064.72618,167.004855 L1064.72618,163.032862 L1062.73803,163.032862 L1062.73803,167.004855 Z M1062.73803,3.97630608 L1058.76603,3.97630608 L1058.76603,5.96445912 L1062.73803,5.96445912 L1062.73803,9.93645218 L1064.72618,9.93645218 L1064.72618,5.96445912 L1068.69817,5.96445912 L1068.69817,3.97630608 L1064.72618,3.97630608 L1064.72618,0.00431301856 L1062.73803,0.00431301856 L1062.73803,3.97630608 Z M1062.73803,85.4905807 L1058.76603,85.4905807 L1058.76603,87.4787337 L1062.73803,87.4787337 L1062.73803,91.4507268 L1064.72618,91.4507268 L1064.72618,87.4787337 L1068.69817,87.4787337 L1068.69817,85.4905807 L1064.72618,85.4905807 L1064.72618,81.5185876 L1062.73803,81.5185876 L1062.73803,85.4905807 Z"></path>
                                    <path d="M1144.18157,1063.66188 L1140.20958,1063.66188 L1140.20958,1065.65003 L1144.18157,1065.65003 L1144.18157,1069.62202 L1146.16972,1069.62202 L1146.16972,1065.65003 L1150.14171,1065.65003 L1150.14171,1063.66188 L1146.16972,1063.66188 L1146.16972,1059.68988 L1144.18157,1059.68988 L1144.18157,1063.66188 Z M1144.18157,982.147601 L1140.20958,982.147601 L1140.20958,984.135755 L1144.18157,984.135755 L1144.18157,988.107748 L1146.16972,988.107748 L1146.16972,984.135755 L1150.14171,984.135755 L1150.14171,982.147601 L1146.16972,982.147601 L1146.16972,978.175608 L1144.18157,978.175608 L1144.18157,982.147601 Z M1144.18157,900.633327 L1140.20958,900.633327 L1140.20958,902.62148 L1144.18157,902.62148 L1144.18157,906.593473 L1146.16972,906.593473 L1146.16972,902.62148 L1150.14171,902.62148 L1150.14171,900.633327 L1146.16972,900.633327 L1146.16972,896.661334 L1144.18157,896.661334 L1144.18157,900.633327 Z M1144.18157,819.119052 L1140.20958,819.119052 L1140.20958,821.107205 L1144.18157,821.107205 L1144.18157,825.079198 L1146.16972,825.079198 L1146.16972,821.107205 L1150.14171,821.107205 L1150.14171,819.119052 L1146.16972,819.119052 L1146.16972,815.147059 L1144.18157,815.147059 L1144.18157,819.119052 Z M1144.18157,737.604778 L1140.20958,737.604778 L1140.20958,739.592931 L1144.18157,739.592931 L1144.18157,743.564924 L1146.16972,743.564924 L1146.16972,739.592931 L1150.14171,739.592931 L1150.14171,737.604778 L1146.16972,737.604778 L1146.16972,733.632785 L1144.18157,733.632785 L1144.18157,737.604778 Z M1144.18157,656.090503 L1140.20958,656.090503 L1140.20958,658.078656 L1144.18157,658.078656 L1144.18157,662.050649 L1146.16972,662.050649 L1146.16972,658.078656 L1150.14171,658.078656 L1150.14171,656.090503 L1146.16972,656.090503 L1146.16972,652.11851 L1144.18157,652.11851 L1144.18157,656.090503 Z M1144.18157,574.576228 L1140.20958,574.576228 L1140.20958,576.564381 L1144.18157,576.564381 L1144.18157,580.536374 L1146.16972,580.536374 L1146.16972,576.564381 L1150.14171,576.564381 L1150.14171,574.576228 L1146.16972,574.576228 L1146.16972,570.604235 L1144.18157,570.604235 L1144.18157,574.576228 Z M1144.18157,493.061954 L1140.20958,493.061954 L1140.20958,495.050107 L1144.18157,495.050107 L1144.18157,499.0221 L1146.16972,499.0221 L1146.16972,495.050107 L1150.14171,495.050107 L1150.14171,493.061954 L1146.16972,493.061954 L1146.16972,489.089961 L1144.18157,489.089961 L1144.18157,493.061954 Z M1144.18157,411.547679 L1140.20958,411.547679 L1140.20958,413.535832 L1144.18157,413.535832 L1144.18157,417.507825 L1146.16972,417.507825 L1146.16972,413.535832 L1150.14171,413.535832 L1150.14171,411.547679 L1146.16972,411.547679 L1146.16972,407.575686 L1144.18157,407.575686 L1144.18157,411.547679 Z M1144.18157,330.033405 L1140.20958,330.033405 L1140.20958,332.021558 L1144.18157,332.021558 L1144.18157,335.993551 L1146.16972,335.993551 L1146.16972,332.021558 L1150.14171,332.021558 L1150.14171,330.033405 L1146.16972,330.033405 L1146.16972,326.061411 L1144.18157,326.061411 L1144.18157,330.033405 Z M1144.18157,248.51913 L1140.20958,248.51913 L1140.20958,250.507283 L1144.18157,250.507283 L1144.18157,254.479276 L1146.16972,254.479276 L1146.16972,250.507283 L1150.14171,250.507283 L1150.14171,248.51913 L1146.16972,248.51913 L1146.16972,244.547137 L1144.18157,244.547137 L1144.18157,248.51913 Z M1144.18157,167.004855 L1140.20958,167.004855 L1140.20958,168.993008 L1144.18157,168.993008 L1144.18157,172.965001 L1146.16972,172.965001 L1146.16972,168.993008 L1150.14171,168.993008 L1150.14171,167.004855 L1146.16972,167.004855 L1146.16972,163.032862 L1144.18157,163.032862 L1144.18157,167.004855 Z M1144.18157,3.97630608 L1140.20958,3.97630608 L1140.20958,5.96445912 L1144.18157,5.96445912 L1144.18157,9.93645218 L1146.16972,9.93645218 L1146.16972,5.96445912 L1150.14171,5.96445912 L1150.14171,3.97630608 L1146.16972,3.97630608 L1146.16972,0.00431301856 L1144.18157,0.00431301856 L1144.18157,3.97630608 Z M1144.18157,85.4905807 L1140.20958,85.4905807 L1140.20958,87.4787337 L1144.18157,87.4787337 L1144.18157,91.4507268 L1146.16972,91.4507268 L1146.16972,87.4787337 L1150.14171,87.4787337 L1150.14171,85.4905807 L1146.16972,85.4905807 L1146.16972,81.5185876 L1144.18157,81.5185876 L1144.18157,85.4905807 Z"></path>
                                    <path d="M1225.62511,1063.66188 L1221.65312,1063.66188 L1221.65312,1065.65003 L1225.62511,1065.65003 L1225.62511,1069.62202 L1227.61326,1069.62202 L1227.61326,1065.65003 L1231.58526,1065.65003 L1231.58526,1063.66188 L1227.61326,1063.66188 L1227.61326,1059.68988 L1225.62511,1059.68988 L1225.62511,1063.66188 Z M1225.62511,982.147601 L1221.65312,982.147601 L1221.65312,984.135755 L1225.62511,984.135755 L1225.62511,988.107748 L1227.61326,988.107748 L1227.61326,984.135755 L1231.58526,984.135755 L1231.58526,982.147601 L1227.61326,982.147601 L1227.61326,978.175608 L1225.62511,978.175608 L1225.62511,982.147601 Z M1225.62511,900.633327 L1221.65312,900.633327 L1221.65312,902.62148 L1225.62511,902.62148 L1225.62511,906.593473 L1227.61326,906.593473 L1227.61326,902.62148 L1231.58526,902.62148 L1231.58526,900.633327 L1227.61326,900.633327 L1227.61326,896.661334 L1225.62511,896.661334 L1225.62511,900.633327 Z M1225.62511,819.119052 L1221.65312,819.119052 L1221.65312,821.107205 L1225.62511,821.107205 L1225.62511,825.079198 L1227.61326,825.079198 L1227.61326,821.107205 L1231.58526,821.107205 L1231.58526,819.119052 L1227.61326,819.119052 L1227.61326,815.147059 L1225.62511,815.147059 L1225.62511,819.119052 Z M1225.62511,737.604778 L1221.65312,737.604778 L1221.65312,739.592931 L1225.62511,739.592931 L1225.62511,743.564924 L1227.61326,743.564924 L1227.61326,739.592931 L1231.58526,739.592931 L1231.58526,737.604778 L1227.61326,737.604778 L1227.61326,733.632785 L1225.62511,733.632785 L1225.62511,737.604778 Z M1225.62511,656.090503 L1221.65312,656.090503 L1221.65312,658.078656 L1225.62511,658.078656 L1225.62511,662.050649 L1227.61326,662.050649 L1227.61326,658.078656 L1231.58526,658.078656 L1231.58526,656.090503 L1227.61326,656.090503 L1227.61326,652.11851 L1225.62511,652.11851 L1225.62511,656.090503 Z M1225.62511,574.576228 L1221.65312,574.576228 L1221.65312,576.564381 L1225.62511,576.564381 L1225.62511,580.536374 L1227.61326,580.536374 L1227.61326,576.564381 L1231.58526,576.564381 L1231.58526,574.576228 L1227.61326,574.576228 L1227.61326,570.604235 L1225.62511,570.604235 L1225.62511,574.576228 Z M1225.62511,493.061954 L1221.65312,493.061954 L1221.65312,495.050107 L1225.62511,495.050107 L1225.62511,499.0221 L1227.61326,499.0221 L1227.61326,495.050107 L1231.58526,495.050107 L1231.58526,493.061954 L1227.61326,493.061954 L1227.61326,489.089961 L1225.62511,489.089961 L1225.62511,493.061954 Z M1225.62511,411.547679 L1221.65312,411.547679 L1221.65312,413.535832 L1225.62511,413.535832 L1225.62511,417.507825 L1227.61326,417.507825 L1227.61326,413.535832 L1231.58526,413.535832 L1231.58526,411.547679 L1227.61326,411.547679 L1227.61326,407.575686 L1225.62511,407.575686 L1225.62511,411.547679 Z M1225.62511,330.033405 L1221.65312,330.033405 L1221.65312,332.021558 L1225.62511,332.021558 L1225.62511,335.993551 L1227.61326,335.993551 L1227.61326,332.021558 L1231.58526,332.021558 L1231.58526,330.033405 L1227.61326,330.033405 L1227.61326,326.061411 L1225.62511,326.061411 L1225.62511,330.033405 Z M1225.62511,248.51913 L1221.65312,248.51913 L1221.65312,250.507283 L1225.62511,250.507283 L1225.62511,254.479276 L1227.61326,254.479276 L1227.61326,250.507283 L1231.58526,250.507283 L1231.58526,248.51913 L1227.61326,248.51913 L1227.61326,244.547137 L1225.62511,244.547137 L1225.62511,248.51913 Z M1225.62511,167.004855 L1221.65312,167.004855 L1221.65312,168.993008 L1225.62511,168.993008 L1225.62511,172.965001 L1227.61326,172.965001 L1227.61326,168.993008 L1231.58526,168.993008 L1231.58526,167.004855 L1227.61326,167.004855 L1227.61326,163.032862 L1225.62511,163.032862 L1225.62511,167.004855 Z M1225.62511,3.97630608 L1221.65312,3.97630608 L1221.65312,5.96445912 L1225.62511,5.96445912 L1225.62511,9.93645218 L1227.61326,9.93645218 L1227.61326,5.96445912 L1231.58526,5.96445912 L1231.58526,3.97630608 L1227.61326,3.97630608 L1227.61326,0.00431301856 L1225.62511,0.00431301856 L1225.62511,3.97630608 Z M1225.62511,85.4905807 L1221.65312,85.4905807 L1221.65312,87.4787337 L1225.62511,87.4787337 L1225.62511,91.4507268 L1227.61326,91.4507268 L1227.61326,87.4787337 L1231.58526,87.4787337 L1231.58526,85.4905807 L1227.61326,85.4905807 L1227.61326,81.5185876 L1225.62511,81.5185876 L1225.62511,85.4905807 Z"></path>
                                    <path d="M1307.06865,1063.66188 L1303.09666,1063.66188 L1303.09666,1065.65003 L1307.06865,1065.65003 L1307.06865,1069.62202 L1309.0568,1069.62202 L1309.0568,1065.65003 L1313.0288,1065.65003 L1313.0288,1063.66188 L1309.0568,1063.66188 L1309.0568,1059.68988 L1307.06865,1059.68988 L1307.06865,1063.66188 Z M1307.06865,982.147601 L1303.09666,982.147601 L1303.09666,984.135755 L1307.06865,984.135755 L1307.06865,988.107748 L1309.0568,988.107748 L1309.0568,984.135755 L1313.0288,984.135755 L1313.0288,982.147601 L1309.0568,982.147601 L1309.0568,978.175608 L1307.06865,978.175608 L1307.06865,982.147601 Z M1307.06865,900.633327 L1303.09666,900.633327 L1303.09666,902.62148 L1307.06865,902.62148 L1307.06865,906.593473 L1309.0568,906.593473 L1309.0568,902.62148 L1313.0288,902.62148 L1313.0288,900.633327 L1309.0568,900.633327 L1309.0568,896.661334 L1307.06865,896.661334 L1307.06865,900.633327 Z M1307.06865,819.119052 L1303.09666,819.119052 L1303.09666,821.107205 L1307.06865,821.107205 L1307.06865,825.079198 L1309.0568,825.079198 L1309.0568,821.107205 L1313.0288,821.107205 L1313.0288,819.119052 L1309.0568,819.119052 L1309.0568,815.147059 L1307.06865,815.147059 L1307.06865,819.119052 Z M1307.06865,737.604778 L1303.09666,737.604778 L1303.09666,739.592931 L1307.06865,739.592931 L1307.06865,743.564924 L1309.0568,743.564924 L1309.0568,739.592931 L1313.0288,739.592931 L1313.0288,737.604778 L1309.0568,737.604778 L1309.0568,733.632785 L1307.06865,733.632785 L1307.06865,737.604778 Z M1307.06865,656.090503 L1303.09666,656.090503 L1303.09666,658.078656 L1307.06865,658.078656 L1307.06865,662.050649 L1309.0568,662.050649 L1309.0568,658.078656 L1313.0288,658.078656 L1313.0288,656.090503 L1309.0568,656.090503 L1309.0568,652.11851 L1307.06865,652.11851 L1307.06865,656.090503 Z M1307.06865,574.576228 L1303.09666,574.576228 L1303.09666,576.564381 L1307.06865,576.564381 L1307.06865,580.536374 L1309.0568,580.536374 L1309.0568,576.564381 L1313.0288,576.564381 L1313.0288,574.576228 L1309.0568,574.576228 L1309.0568,570.604235 L1307.06865,570.604235 L1307.06865,574.576228 Z M1307.06865,493.061954 L1303.09666,493.061954 L1303.09666,495.050107 L1307.06865,495.050107 L1307.06865,499.0221 L1309.0568,499.0221 L1309.0568,495.050107 L1313.0288,495.050107 L1313.0288,493.061954 L1309.0568,493.061954 L1309.0568,489.089961 L1307.06865,489.089961 L1307.06865,493.061954 Z M1307.06865,411.547679 L1303.09666,411.547679 L1303.09666,413.535832 L1307.06865,413.535832 L1307.06865,417.507825 L1309.0568,417.507825 L1309.0568,413.535832 L1313.0288,413.535832 L1313.0288,411.547679 L1309.0568,411.547679 L1309.0568,407.575686 L1307.06865,407.575686 L1307.06865,411.547679 Z M1307.06865,330.033405 L1303.09666,330.033405 L1303.09666,332.021558 L1307.06865,332.021558 L1307.06865,335.993551 L1309.0568,335.993551 L1309.0568,332.021558 L1313.0288,332.021558 L1313.0288,330.033405 L1309.0568,330.033405 L1309.0568,326.061411 L1307.06865,326.061411 L1307.06865,330.033405 Z M1307.06865,248.51913 L1303.09666,248.51913 L1303.09666,250.507283 L1307.06865,250.507283 L1307.06865,254.479276 L1309.0568,254.479276 L1309.0568,250.507283 L1313.0288,250.507283 L1313.0288,248.51913 L1309.0568,248.51913 L1309.0568,244.547137 L1307.06865,244.547137 L1307.06865,248.51913 Z M1307.06865,167.004855 L1303.09666,167.004855 L1303.09666,168.993008 L1307.06865,168.993008 L1307.06865,172.965001 L1309.0568,172.965001 L1309.0568,168.993008 L1313.0288,168.993008 L1313.0288,167.004855 L1309.0568,167.004855 L1309.0568,163.032862 L1307.06865,163.032862 L1307.06865,167.004855 Z M1307.06865,3.97630608 L1303.09666,3.97630608 L1303.09666,5.96445912 L1307.06865,5.96445912 L1307.06865,9.93645218 L1309.0568,9.93645218 L1309.0568,5.96445912 L1313.0288,5.96445912 L1313.0288,3.97630608 L1309.0568,3.97630608 L1309.0568,0.00431301856 L1307.06865,0.00431301856 L1307.06865,3.97630608 Z M1307.06865,85.4905807 L1303.09666,85.4905807 L1303.09666,87.4787337 L1307.06865,87.4787337 L1307.06865,91.4507268 L1309.0568,91.4507268 L1309.0568,87.4787337 L1313.0288,87.4787337 L1313.0288,85.4905807 L1309.0568,85.4905807 L1309.0568,81.5185876 L1307.06865,81.5185876 L1307.06865,85.4905807 Z"></path>
                                    <path d="M1388.51219,1063.66188 L1384.5402,1063.66188 L1384.5402,1065.65003 L1388.51219,1065.65003 L1388.51219,1069.62202 L1390.50035,1069.62202 L1390.50035,1065.65003 L1394.47234,1065.65003 L1394.47234,1063.66188 L1390.50035,1063.66188 L1390.50035,1059.68988 L1388.51219,1059.68988 L1388.51219,1063.66188 Z M1388.51219,982.147601 L1384.5402,982.147601 L1384.5402,984.135755 L1388.51219,984.135755 L1388.51219,988.107748 L1390.50035,988.107748 L1390.50035,984.135755 L1394.47234,984.135755 L1394.47234,982.147601 L1390.50035,982.147601 L1390.50035,978.175608 L1388.51219,978.175608 L1388.51219,982.147601 Z M1388.51219,900.633327 L1384.5402,900.633327 L1384.5402,902.62148 L1388.51219,902.62148 L1388.51219,906.593473 L1390.50035,906.593473 L1390.50035,902.62148 L1394.47234,902.62148 L1394.47234,900.633327 L1390.50035,900.633327 L1390.50035,896.661334 L1388.51219,896.661334 L1388.51219,900.633327 Z M1388.51219,819.119052 L1384.5402,819.119052 L1384.5402,821.107205 L1388.51219,821.107205 L1388.51219,825.079198 L1390.50035,825.079198 L1390.50035,821.107205 L1394.47234,821.107205 L1394.47234,819.119052 L1390.50035,819.119052 L1390.50035,815.147059 L1388.51219,815.147059 L1388.51219,819.119052 Z M1388.51219,737.604778 L1384.5402,737.604778 L1384.5402,739.592931 L1388.51219,739.592931 L1388.51219,743.564924 L1390.50035,743.564924 L1390.50035,739.592931 L1394.47234,739.592931 L1394.47234,737.604778 L1390.50035,737.604778 L1390.50035,733.632785 L1388.51219,733.632785 L1388.51219,737.604778 Z M1388.51219,656.090503 L1384.5402,656.090503 L1384.5402,658.078656 L1388.51219,658.078656 L1388.51219,662.050649 L1390.50035,662.050649 L1390.50035,658.078656 L1394.47234,658.078656 L1394.47234,656.090503 L1390.50035,656.090503 L1390.50035,652.11851 L1388.51219,652.11851 L1388.51219,656.090503 Z M1388.51219,574.576228 L1384.5402,574.576228 L1384.5402,576.564381 L1388.51219,576.564381 L1388.51219,580.536374 L1390.50035,580.536374 L1390.50035,576.564381 L1394.47234,576.564381 L1394.47234,574.576228 L1390.50035,574.576228 L1390.50035,570.604235 L1388.51219,570.604235 L1388.51219,574.576228 Z M1388.51219,493.061954 L1384.5402,493.061954 L1384.5402,495.050107 L1388.51219,495.050107 L1388.51219,499.0221 L1390.50035,499.0221 L1390.50035,495.050107 L1394.47234,495.050107 L1394.47234,493.061954 L1390.50035,493.061954 L1390.50035,489.089961 L1388.51219,489.089961 L1388.51219,493.061954 Z M1388.51219,411.547679 L1384.5402,411.547679 L1384.5402,413.535832 L1388.51219,413.535832 L1388.51219,417.507825 L1390.50035,417.507825 L1390.50035,413.535832 L1394.47234,413.535832 L1394.47234,411.547679 L1390.50035,411.547679 L1390.50035,407.575686 L1388.51219,407.575686 L1388.51219,411.547679 Z M1388.51219,330.033405 L1384.5402,330.033405 L1384.5402,332.021558 L1388.51219,332.021558 L1388.51219,335.993551 L1390.50035,335.993551 L1390.50035,332.021558 L1394.47234,332.021558 L1394.47234,330.033405 L1390.50035,330.033405 L1390.50035,326.061411 L1388.51219,326.061411 L1388.51219,330.033405 Z M1388.51219,248.51913 L1384.5402,248.51913 L1384.5402,250.507283 L1388.51219,250.507283 L1388.51219,254.479276 L1390.50035,254.479276 L1390.50035,250.507283 L1394.47234,250.507283 L1394.47234,248.51913 L1390.50035,248.51913 L1390.50035,244.547137 L1388.51219,244.547137 L1388.51219,248.51913 Z M1388.51219,167.004855 L1384.5402,167.004855 L1384.5402,168.993008 L1388.51219,168.993008 L1388.51219,172.965001 L1390.50035,172.965001 L1390.50035,168.993008 L1394.47234,168.993008 L1394.47234,167.004855 L1390.50035,167.004855 L1390.50035,163.032862 L1388.51219,163.032862 L1388.51219,167.004855 Z M1388.51219,3.97630608 L1384.5402,3.97630608 L1384.5402,5.96445912 L1388.51219,5.96445912 L1388.51219,9.93645218 L1390.50035,9.93645218 L1390.50035,5.96445912 L1394.47234,5.96445912 L1394.47234,3.97630608 L1390.50035,3.97630608 L1390.50035,0.00431301856 L1388.51219,0.00431301856 L1388.51219,3.97630608 Z M1388.51219,85.4905807 L1384.5402,85.4905807 L1384.5402,87.4787337 L1388.51219,87.4787337 L1388.51219,91.4507268 L1390.50035,91.4507268 L1390.50035,87.4787337 L1394.47234,87.4787337 L1394.47234,85.4905807 L1390.50035,85.4905807 L1390.50035,81.5185876 L1388.51219,81.5185876 L1388.51219,85.4905807 Z"></path>
                                    <path d="M1388.51219,1063.66188 L1384.5402,1063.66188 L1384.5402,1065.65003 L1388.51219,1065.65003 L1388.51219,1069.62202 L1390.50035,1069.62202 L1390.50035,1065.65003 L1394.47234,1065.65003 L1394.47234,1063.66188 L1390.50035,1063.66188 L1390.50035,1059.68988 L1388.51219,1059.68988 L1388.51219,1063.66188 Z M1388.51219,982.147601 L1384.5402,982.147601 L1384.5402,984.135755 L1388.51219,984.135755 L1388.51219,988.107748 L1390.50035,988.107748 L1390.50035,984.135755 L1394.47234,984.135755 L1394.47234,982.147601 L1390.50035,982.147601 L1390.50035,978.175608 L1388.51219,978.175608 L1388.51219,982.147601 Z M1388.51219,900.633327 L1384.5402,900.633327 L1384.5402,902.62148 L1388.51219,902.62148 L1388.51219,906.593473 L1390.50035,906.593473 L1390.50035,902.62148 L1394.47234,902.62148 L1394.47234,900.633327 L1390.50035,900.633327 L1390.50035,896.661334 L1388.51219,896.661334 L1388.51219,900.633327 Z M1388.51219,819.119052 L1384.5402,819.119052 L1384.5402,821.107205 L1388.51219,821.107205 L1388.51219,825.079198 L1390.50035,825.079198 L1390.50035,821.107205 L1394.47234,821.107205 L1394.47234,819.119052 L1390.50035,819.119052 L1390.50035,815.147059 L1388.51219,815.147059 L1388.51219,819.119052 Z M1388.51219,737.604778 L1384.5402,737.604778 L1384.5402,739.592931 L1388.51219,739.592931 L1388.51219,743.564924 L1390.50035,743.564924 L1390.50035,739.592931 L1394.47234,739.592931 L1394.47234,737.604778 L1390.50035,737.604778 L1390.50035,733.632785 L1388.51219,733.632785 L1388.51219,737.604778 Z M1388.51219,656.090503 L1384.5402,656.090503 L1384.5402,658.078656 L1388.51219,658.078656 L1388.51219,662.050649 L1390.50035,662.050649 L1390.50035,658.078656 L1394.47234,658.078656 L1394.47234,656.090503 L1390.50035,656.090503 L1390.50035,652.11851 L1388.51219,652.11851 L1388.51219,656.090503 Z M1388.51219,574.576228 L1384.5402,574.576228 L1384.5402,576.564381 L1388.51219,576.564381 L1388.51219,580.536374 L1390.50035,580.536374 L1390.50035,576.564381 L1394.47234,576.564381 L1394.47234,574.576228 L1390.50035,574.576228 L1390.50035,570.604235 L1388.51219,570.604235 L1388.51219,574.576228 Z M1388.51219,493.061954 L1384.5402,493.061954 L1384.5402,495.050107 L1388.51219,495.050107 L1388.51219,499.0221 L1390.50035,499.0221 L1390.50035,495.050107 L1394.47234,495.050107 L1394.47234,493.061954 L1390.50035,493.061954 L1390.50035,489.089961 L1388.51219,489.089961 L1388.51219,493.061954 Z M1388.51219,411.547679 L1384.5402,411.547679 L1384.5402,413.535832 L1388.51219,413.535832 L1388.51219,417.507825 L1390.50035,417.507825 L1390.50035,413.535832 L1394.47234,413.535832 L1394.47234,411.547679 L1390.50035,411.547679 L1390.50035,407.575686 L1388.51219,407.575686 L1388.51219,411.547679 Z M1388.51219,330.033405 L1384.5402,330.033405 L1384.5402,332.021558 L1388.51219,332.021558 L1388.51219,335.993551 L1390.50035,335.993551 L1390.50035,332.021558 L1394.47234,332.021558 L1394.47234,330.033405 L1390.50035,330.033405 L1390.50035,326.061411 L1388.51219,326.061411 L1388.51219,330.033405 Z M1388.51219,248.51913 L1384.5402,248.51913 L1384.5402,250.507283 L1388.51219,250.507283 L1388.51219,254.479276 L1390.50035,254.479276 L1390.50035,250.507283 L1394.47234,250.507283 L1394.47234,248.51913 L1390.50035,248.51913 L1390.50035,244.547137 L1388.51219,244.547137 L1388.51219,248.51913 Z M1388.51219,167.004855 L1384.5402,167.004855 L1384.5402,168.993008 L1388.51219,168.993008 L1388.51219,172.965001 L1390.50035,172.965001 L1390.50035,168.993008 L1394.47234,168.993008 L1394.47234,167.004855 L1390.50035,167.004855 L1390.50035,163.032862 L1388.51219,163.032862 L1388.51219,167.004855 Z M1388.51219,3.97630608 L1384.5402,3.97630608 L1384.5402,5.96445912 L1388.51219,5.96445912 L1388.51219,9.93645218 L1390.50035,9.93645218 L1390.50035,5.96445912 L1394.47234,5.96445912 L1394.47234,3.97630608 L1390.50035,3.97630608 L1390.50035,0.00431301856 L1388.51219,0.00431301856 L1388.51219,3.97630608 Z M1388.51219,85.4905807 L1384.5402,85.4905807 L1384.5402,87.4787337 L1388.51219,87.4787337 L1388.51219,91.4507268 L1390.50035,91.4507268 L1390.50035,87.4787337 L1394.47234,87.4787337 L1394.47234,85.4905807 L1390.50035,85.4905807 L1390.50035,81.5185876 L1388.51219,81.5185876 L1388.51219,85.4905807 Z"></path>
                                </g>
                            </g>
                        </g>
                    </g>
                </g>
            </g>
        </g>
    </g>
</svg>