<?xml version="1.0" encoding="UTF-8" standalone="no"?>
<svg width="600px" height="600px" viewBox="0 0 600 600" version="1.1" xmlns="http://www.w3.org/2000/svg" xmlns:xlink="http://www.w3.org/1999/xlink">
    <!-- Generator: Sketch 3.7.2 (28276) - http://www.bohemiancoding.com/sketch -->
    <title>tasky text</title>
    <desc>Created with Sketch.</desc>
    <defs></defs>
    <g id="Page-1" stroke="none" stroke-width="1" fill="none" fill-rule="evenodd">
        <g id="tasky-text">
            <g id="Group">
                <rect id="Rectangle-12114" x="0" y="0" width="600" height="600"></rect>
                <path d="M83.01,518 L84.466,518 L84.466,510.692 L89.758,510.692 C93.846,510.692 97.402,508.564 97.402,504.448 C97.402,500.612 94.434,498.4 90.122,498.4 L83.01,498.4 L83.01,518 Z M84.466,509.348 L84.466,499.744 L90.01,499.744 C93.538,499.744 95.946,501.368 95.946,504.476 C95.946,507.444 93.482,509.348 89.842,509.348 L84.466,509.348 Z M102.406,518 L103.778,518 L103.778,512.148 C103.778,507.5 106.662,505.008 109.966,505.008 L110.106,505.008 L110.106,503.496 C107.278,503.384 104.898,505.232 103.778,507.78 L103.778,503.72 L102.406,503.72 L102.406,518 Z M120.234,518.336 C124.49,518.336 127.598,514.864 127.598,510.86 C127.598,506.8 124.518,503.384 120.29,503.384 C116.034,503.384 112.926,506.856 112.926,510.86 C112.926,514.92 116.006,518.336 120.234,518.336 L120.234,518.336 Z M120.29,517.048 C116.986,517.048 114.41,514.304 114.41,510.86 C114.41,507.444 117.014,504.672 120.234,504.672 C123.454,504.672 126.114,507.416 126.114,510.86 C126.114,514.276 123.454,517.048 120.29,517.048 L120.29,517.048 Z M131.342,522.564 C133.19,522.564 134.394,521.5 134.394,519.26 L134.394,503.72 L133.022,503.72 L133.022,519.344 C133.022,520.688 132.322,521.332 131.314,521.332 C131.006,521.332 130.53,521.304 130.194,521.248 L130.194,522.452 C130.614,522.536 130.95,522.564 131.342,522.564 L131.342,522.564 Z M132.854,499.996 L134.562,499.996 L134.562,498.12 L132.854,498.12 L132.854,499.996 Z M146.818,518.336 C149.562,518.336 151.27,517.216 152.726,515.648 L151.774,514.808 C150.598,516.068 149.086,517.048 146.874,517.048 C144.074,517.048 141.526,514.976 141.274,511.42 L153.118,511.42 C153.146,511.196 153.146,511.112 153.146,510.86 C153.146,506.632 150.598,503.384 146.594,503.384 C142.73,503.384 139.818,506.688 139.818,510.832 C139.818,515.34 143.066,518.336 146.818,518.336 L146.818,518.336 Z M141.274,510.188 C141.526,507.024 143.71,504.644 146.538,504.644 C149.814,504.644 151.466,507.304 151.662,510.188 L141.274,510.188 Z M164.45,518.336 C167.082,518.336 168.818,517.16 170.274,515.508 L169.266,514.612 C168.062,515.956 166.55,517.048 164.534,517.048 C161.258,517.048 158.654,514.304 158.654,510.86 C158.654,507.444 161.258,504.672 164.422,504.672 C166.55,504.672 167.95,505.764 169.182,507.024 L170.134,506.044 C168.874,504.616 167.138,503.384 164.45,503.384 C160.362,503.384 157.17,506.772 157.17,510.86 C157.17,514.976 160.334,518.336 164.45,518.336 L164.45,518.336 Z M179.898,518.252 C180.794,518.252 181.494,518.084 182.222,517.748 L182.222,516.46 C181.41,516.824 180.822,516.964 180.122,516.964 C178.47,516.964 177.266,516.236 177.266,514.192 L177.266,504.98 L182.278,504.98 L182.278,503.72 L177.266,503.72 L177.266,499.156 L175.894,499.156 L175.894,503.72 L173.822,503.72 L173.822,504.98 L175.894,504.98 L175.894,514.332 C175.894,517.048 177.686,518.252 179.898,518.252 L179.898,518.252 Z M196.738,518 L198.11,518 L198.11,509.768 C198.11,506.884 200.126,504.644 202.674,504.644 C205.222,504.644 206.846,506.464 206.846,509.432 L206.846,518 L208.218,518 L208.218,509.684 C208.218,506.492 210.318,504.644 212.726,504.644 C215.358,504.644 216.954,506.436 216.954,509.516 L216.954,518 L218.326,518 L218.326,509.348 C218.326,505.764 216.226,503.384 212.838,503.384 C210.15,503.384 208.61,504.868 207.686,506.464 C206.902,504.812 205.362,503.384 202.87,503.384 C200.322,503.384 199.034,504.784 198.11,506.268 L198.11,503.72 L196.738,503.72 L196.738,518 Z M228.706,518.336 C231.422,518.336 233.186,516.992 234.166,515.62 L234.166,518 L235.51,518 L235.51,509.096 C235.51,507.332 235.006,506.016 234.054,505.064 C233.018,504.028 231.478,503.496 229.546,503.496 C227.586,503.496 226.046,504 224.478,504.728 L224.982,505.932 C226.298,505.26 227.726,504.784 229.462,504.784 C232.402,504.784 234.166,506.268 234.166,509.152 L234.166,509.768 C232.794,509.404 231.422,509.152 229.434,509.152 C225.738,509.152 223.19,510.832 223.19,513.8 C223.19,516.824 226.046,518.336 228.706,518.336 L228.706,518.336 Z M228.79,517.048 C226.606,517.048 224.646,515.844 224.646,513.772 C224.646,511.728 226.326,510.384 229.35,510.384 C231.394,510.384 232.99,510.72 234.194,511.028 L234.194,512.652 C234.194,515.256 231.702,517.048 228.79,517.048 L228.79,517.048 Z M241.438,518 L242.81,518 L242.81,509.74 C242.81,506.772 244.966,504.644 247.766,504.644 C250.65,504.644 252.302,506.576 252.302,509.516 L252.302,518 L253.674,518 L253.674,509.264 C253.674,505.848 251.574,503.384 247.962,503.384 C245.358,503.384 243.762,504.7 242.81,506.38 L242.81,503.72 L241.438,503.72 L241.438,518 Z M263.942,518.336 C266.658,518.336 268.422,516.992 269.402,515.62 L269.402,518 L270.746,518 L270.746,509.096 C270.746,507.332 270.242,506.016 269.29,505.064 C268.254,504.028 266.714,503.496 264.782,503.496 C262.822,503.496 261.282,504 259.714,504.728 L260.218,505.932 C261.534,505.26 262.962,504.784 264.698,504.784 C267.638,504.784 269.402,506.268 269.402,509.152 L269.402,509.768 C268.03,509.404 266.658,509.152 264.67,509.152 C260.974,509.152 258.426,510.832 258.426,513.8 C258.426,516.824 261.282,518.336 263.942,518.336 L263.942,518.336 Z M264.026,517.048 C261.842,517.048 259.882,515.844 259.882,513.772 C259.882,511.728 261.562,510.384 264.586,510.384 C266.63,510.384 268.226,510.72 269.43,511.028 L269.43,512.652 C269.43,515.256 266.938,517.048 264.026,517.048 L264.026,517.048 Z M282.946,522.536 C285.046,522.536 286.894,521.864 288.126,520.632 C289.274,519.484 289.946,517.86 289.946,515.788 L289.946,503.72 L288.574,503.72 L288.574,506.576 C287.398,504.896 285.466,503.384 282.61,503.384 C279.166,503.384 275.75,506.044 275.75,510.16 C275.75,514.304 279.166,516.936 282.61,516.936 C285.438,516.936 287.342,515.396 288.574,513.632 L288.574,515.704 C288.574,519.372 286.25,521.248 282.974,521.248 C280.874,521.248 278.914,520.548 277.206,519.232 L276.394,520.352 C278.354,521.808 280.566,522.536 282.946,522.536 L282.946,522.536 Z M282.75,515.62 C279.81,515.62 277.234,513.38 277.234,510.16 C277.234,506.772 279.754,504.7 282.75,504.7 C285.718,504.7 288.658,506.828 288.658,510.132 C288.658,513.436 285.718,515.62 282.75,515.62 L282.75,515.62 Z M302.174,518.336 C304.918,518.336 306.626,517.216 308.082,515.648 L307.13,514.808 C305.954,516.068 304.442,517.048 302.23,517.048 C299.43,517.048 296.882,514.976 296.63,511.42 L308.474,511.42 C308.502,511.196 308.502,511.112 308.502,510.86 C308.502,506.632 305.954,503.384 301.95,503.384 C298.086,503.384 295.174,506.688 295.174,510.832 C295.174,515.34 298.422,518.336 302.174,518.336 L302.174,518.336 Z M296.63,510.188 C296.882,507.024 299.066,504.644 301.894,504.644 C305.17,504.644 306.822,507.304 307.018,510.188 L296.63,510.188 Z M313.506,518 L314.878,518 L314.878,509.768 C314.878,506.884 316.894,504.644 319.442,504.644 C321.99,504.644 323.614,506.464 323.614,509.432 L323.614,518 L324.986,518 L324.986,509.684 C324.986,506.492 327.086,504.644 329.494,504.644 C332.126,504.644 333.722,506.436 333.722,509.516 L333.722,518 L335.094,518 L335.094,509.348 C335.094,505.764 332.994,503.384 329.606,503.384 C326.918,503.384 325.378,504.868 324.454,506.464 C323.67,504.812 322.13,503.384 319.638,503.384 C317.09,503.384 315.802,504.784 314.878,506.268 L314.878,503.72 L313.506,503.72 L313.506,518 Z M347.154,518.336 C349.898,518.336 351.606,517.216 353.062,515.648 L352.11,514.808 C350.934,516.068 349.422,517.048 347.21,517.048 C344.41,517.048 341.862,514.976 341.61,511.42 L353.454,511.42 C353.482,511.196 353.482,511.112 353.482,510.86 C353.482,506.632 350.934,503.384 346.93,503.384 C343.066,503.384 340.154,506.688 340.154,510.832 C340.154,515.34 343.402,518.336 347.154,518.336 L347.154,518.336 Z M341.61,510.188 C341.862,507.024 344.046,504.644 346.874,504.644 C350.15,504.644 351.802,507.304 351.998,510.188 L341.61,510.188 Z M358.486,518 L359.858,518 L359.858,509.74 C359.858,506.772 362.014,504.644 364.814,504.644 C367.698,504.644 369.35,506.576 369.35,509.516 L369.35,518 L370.722,518 L370.722,509.264 C370.722,505.848 368.622,503.384 365.01,503.384 C362.406,503.384 360.81,504.7 359.858,506.38 L359.858,503.72 L358.486,503.72 L358.486,518 Z M381.41,518.252 C382.306,518.252 383.006,518.084 383.734,517.748 L383.734,516.46 C382.922,516.824 382.334,516.964 381.634,516.964 C379.982,516.964 378.778,516.236 378.778,514.192 L378.778,504.98 L383.79,504.98 L383.79,503.72 L378.778,503.72 L378.778,499.156 L377.406,499.156 L377.406,503.72 L375.334,503.72 L375.334,504.98 L377.406,504.98 L377.406,514.332 C377.406,517.048 379.198,518.252 381.41,518.252 L381.41,518.252 Z M402.254,518.112 L403.43,518.112 L407.714,505.876 L411.97,518.112 L413.146,518.112 L418.382,503.72 L416.898,503.72 L412.586,516.264 L408.274,503.664 L407.182,503.664 L402.87,516.264 L398.558,503.72 L397.018,503.72 L402.254,518.112 Z M428.678,518.336 C431.422,518.336 433.13,517.216 434.586,515.648 L433.634,514.808 C432.458,516.068 430.946,517.048 428.734,517.048 C425.934,517.048 423.386,514.976 423.134,511.42 L434.978,511.42 C435.006,511.196 435.006,511.112 435.006,510.86 C435.006,506.632 432.458,503.384 428.454,503.384 C424.59,503.384 421.678,506.688 421.678,510.832 C421.678,515.34 424.926,518.336 428.678,518.336 L428.678,518.336 Z M423.134,510.188 C423.386,507.024 425.57,504.644 428.398,504.644 C431.674,504.644 433.326,507.304 433.522,510.188 L423.134,510.188 Z M447.262,518.336 C450.706,518.336 454.206,515.508 454.206,510.86 C454.206,506.156 450.706,503.384 447.262,503.384 C444.434,503.384 442.614,505.036 441.382,506.912 L441.382,497.56 L440.01,497.56 L440.01,518 L441.382,518 L441.382,514.92 C442.558,516.712 444.406,518.336 447.262,518.336 L447.262,518.336 Z M447.122,517.02 C444.154,517.02 441.298,514.556 441.298,510.888 C441.298,507.192 444.154,504.7 447.122,504.7 C450.118,504.7 452.722,507.108 452.722,510.86 C452.722,514.752 450.23,517.02 447.122,517.02 L447.122,517.02 Z M458.846,510.468 L466.35,510.468 L466.35,508.9 L458.846,508.9 L458.846,510.468 Z M476.674,518.252 C477.57,518.252 478.27,518.084 478.998,517.748 L478.998,516.46 C478.186,516.824 477.598,516.964 476.898,516.964 C475.246,516.964 474.042,516.236 474.042,514.192 L474.042,504.98 L479.054,504.98 L479.054,503.72 L474.042,503.72 L474.042,499.156 L472.67,499.156 L472.67,503.72 L470.598,503.72 L470.598,504.98 L472.67,504.98 L472.67,514.332 C472.67,517.048 474.462,518.252 476.674,518.252 L476.674,518.252 Z M490.022,518.336 C494.278,518.336 497.386,514.864 497.386,510.86 C497.386,506.8 494.306,503.384 490.078,503.384 C485.822,503.384 482.714,506.856 482.714,510.86 C482.714,514.92 485.794,518.336 490.022,518.336 L490.022,518.336 Z M490.078,517.048 C486.774,517.048 484.198,514.304 484.198,510.86 C484.198,507.444 486.802,504.672 490.022,504.672 C493.242,504.672 495.902,507.416 495.902,510.86 C495.902,514.276 493.242,517.048 490.078,517.048 L490.078,517.048 Z M508.942,518.336 C513.198,518.336 516.306,514.864 516.306,510.86 C516.306,506.8 513.226,503.384 508.998,503.384 C504.742,503.384 501.634,506.856 501.634,510.86 C501.634,514.92 504.714,518.336 508.942,518.336 L508.942,518.336 Z M508.998,517.048 C505.694,517.048 503.118,514.304 503.118,510.86 C503.118,507.444 505.722,504.672 508.942,504.672 C512.162,504.672 514.822,507.416 514.822,510.86 C514.822,514.276 512.162,517.048 508.998,517.048 L508.998,517.048 Z M521.73,518 L523.102,518 L523.102,497.56 L521.73,497.56 L521.73,518 Z" id="Project-management-w" fill="#FFFFFF"></path>
                <path d="M248.557334,96 L252.525334,96 L252.525334,77.248 L259.629334,77.248 L259.629334,73.6 L241.453334,73.6 L241.453334,77.248 L248.557334,77.248 L248.557334,96 Z M263.256,96 L267.288,96 L269.592,90.592 L280.184,90.592 L282.456,96 L286.616,96 L276.76,73.44 L273.112,73.44 L263.256,96 Z M271.032,87.104 L274.872,78.144 L278.744,87.104 L271.032,87.104 Z M302.210667,96.32 C306.914667,96.32 310.210667,93.824 310.210667,89.632 C310.210667,85.856 307.746667,84.16 303.010667,83.008 C298.722667,81.984 297.698667,81.216 297.698667,79.488 C297.698667,77.952 299.042667,76.768 301.346667,76.768 C303.394667,76.768 305.410667,77.568 307.426667,79.072 L309.538667,76.096 C307.266667,74.272 304.674667,73.28 301.410667,73.28 C296.962667,73.28 293.762667,75.936 293.762667,79.776 C293.762667,83.968 296.450667,85.376 301.218667,86.496 C305.378667,87.488 306.274667,88.352 306.274667,89.952 C306.274667,91.712 304.738667,92.832 302.306667,92.832 C299.522667,92.832 297.378667,91.776 295.234667,89.92 L292.866667,92.736 C295.554667,95.136 298.786667,96.32 302.210667,96.32 L302.210667,96.32 Z M319.117333,96 L323.053333,96 L323.053333,89.504 L326.541333,85.92 L334.189333,96 L338.957333,96 L329.229333,83.232 L338.541333,73.6 L333.709333,73.6 L323.053333,84.864 L323.053333,73.6 L319.117333,73.6 L319.117333,96 Z M352.12,96 L356.088,96 L356.088,87.072 L364.984,73.6 L360.472,73.6 L354.136,83.52 L347.864,73.6 L343.224,73.6 L352.12,87.168 L352.12,96 Z" id="TASKY" fill="#FFFFFF"></path>
            </g>
        </g>
    </g>
</svg>