<?xml version="1.0" encoding="UTF-8" standalone="no"?>
<svg width="600px" height="600px" viewBox="0 0 600 600" version="1.1" xmlns="http://www.w3.org/2000/svg" xmlns:xlink="http://www.w3.org/1999/xlink">
    <!-- Generator: Sketch 3.7.2 (28276) - http://www.bohemiancoding.com/sketch -->
    <title>lounge fm text</title>
    <desc>Created with Sketch.</desc>
    <defs></defs>
    <g id="Page-1" stroke="none" stroke-width="1" fill="none" fill-rule="evenodd">
        <g id="lounge-fm-text">
            <g id="Group">
                <rect id="Rectangle-5378" x="0" y="0" width="601" height="600"></rect>
                <path d="M190.272,517.336 C196.208,517.336 200.156,512.548 200.156,507.2 C200.156,501.796 196.264,497.064 190.328,497.064 C184.392,497.064 180.444,501.852 180.444,507.2 C180.444,512.604 184.336,517.336 190.272,517.336 L190.272,517.336 Z M190.328,516.02 C185.484,516.02 181.956,512.044 181.956,507.2 C181.956,502.3 185.428,498.38 190.272,498.38 C195.116,498.38 198.644,502.356 198.644,507.2 C198.644,512.1 195.172,516.02 190.328,516.02 L190.328,516.02 Z M205.804,517 L207.176,517 L207.176,508.74 C207.176,505.772 209.332,503.644 212.132,503.644 C215.016,503.644 216.668,505.576 216.668,508.516 L216.668,517 L218.04,517 L218.04,508.264 C218.04,504.848 215.94,502.384 212.328,502.384 C209.724,502.384 208.128,503.7 207.176,505.38 L207.176,502.72 L205.804,502.72 L205.804,517 Z M224.164,517 L225.536,517 L225.536,496.56 L224.164,496.56 L224.164,517 Z M232.136,517 L233.508,517 L233.508,502.72 L232.136,502.72 L232.136,517 Z M231.968,498.996 L233.676,498.996 L233.676,497.12 L231.968,497.12 L231.968,498.996 Z M239.912,517 L241.284,517 L241.284,508.74 C241.284,505.772 243.44,503.644 246.24,503.644 C249.124,503.644 250.776,505.576 250.776,508.516 L250.776,517 L252.148,517 L252.148,508.264 C252.148,504.848 250.048,502.384 246.436,502.384 C243.832,502.384 242.236,503.7 241.284,505.38 L241.284,502.72 L239.912,502.72 L239.912,517 Z M264.096,517.336 C266.84,517.336 268.548,516.216 270.004,514.648 L269.052,513.808 C267.876,515.068 266.364,516.048 264.152,516.048 C261.352,516.048 258.804,513.976 258.552,510.42 L270.396,510.42 C270.424,510.196 270.424,510.112 270.424,509.86 C270.424,505.632 267.876,502.384 263.872,502.384 C260.008,502.384 257.096,505.688 257.096,509.832 C257.096,514.34 260.344,517.336 264.096,517.336 L264.096,517.336 Z M258.552,509.188 C258.804,506.024 260.988,503.644 263.816,503.644 C267.092,503.644 268.744,506.304 268.94,509.188 L258.552,509.188 Z M284.828,517 L286.2,517 L286.2,511.148 C286.2,506.5 289.084,504.008 292.388,504.008 L292.528,504.008 L292.528,502.496 C289.7,502.384 287.32,504.232 286.2,506.78 L286.2,502.72 L284.828,502.72 L284.828,517 Z M300.668,517.336 C303.384,517.336 305.148,515.992 306.128,514.62 L306.128,517 L307.472,517 L307.472,508.096 C307.472,506.332 306.968,505.016 306.016,504.064 C304.98,503.028 303.44,502.496 301.508,502.496 C299.548,502.496 298.008,503 296.44,503.728 L296.944,504.932 C298.26,504.26 299.688,503.784 301.424,503.784 C304.364,503.784 306.128,505.268 306.128,508.152 L306.128,508.768 C304.756,508.404 303.384,508.152 301.396,508.152 C297.7,508.152 295.152,509.832 295.152,512.8 C295.152,515.824 298.008,517.336 300.668,517.336 L300.668,517.336 Z M300.752,516.048 C298.568,516.048 296.608,514.844 296.608,512.772 C296.608,510.728 298.288,509.384 301.312,509.384 C303.356,509.384 304.952,509.72 306.156,510.028 L306.156,511.652 C306.156,514.256 303.664,516.048 300.752,516.048 L300.752,516.048 Z M319.42,517.336 C322.248,517.336 324.068,515.684 325.3,513.808 L325.3,517 L326.672,517 L326.672,496.56 L325.3,496.56 L325.3,505.8 C324.124,504.008 322.276,502.384 319.42,502.384 C315.976,502.384 312.476,505.212 312.476,509.86 C312.476,514.564 315.976,517.336 319.42,517.336 L319.42,517.336 Z M319.56,516.02 C316.564,516.02 313.96,513.612 313.96,509.86 C313.96,505.968 316.452,503.7 319.56,503.7 C322.528,503.7 325.384,506.164 325.384,509.832 C325.384,513.528 322.528,516.02 319.56,516.02 L319.56,516.02 Z M333.076,517 L334.448,517 L334.448,502.72 L333.076,502.72 L333.076,517 Z M332.908,498.996 L334.616,498.996 L334.616,497.12 L332.908,497.12 L332.908,498.996 Z M347.18,517.336 C351.436,517.336 354.544,513.864 354.544,509.86 C354.544,505.8 351.464,502.384 347.236,502.384 C342.98,502.384 339.872,505.856 339.872,509.86 C339.872,513.92 342.952,517.336 347.18,517.336 L347.18,517.336 Z M347.236,516.048 C343.932,516.048 341.356,513.304 341.356,509.86 C341.356,506.444 343.96,503.672 347.18,503.672 C350.4,503.672 353.06,506.416 353.06,509.86 C353.06,513.276 350.4,516.048 347.236,516.048 L347.236,516.048 Z M373.512,517.336 C376.228,517.336 377.992,515.992 378.972,514.62 L378.972,517 L380.316,517 L380.316,508.096 C380.316,506.332 379.812,505.016 378.86,504.064 C377.824,503.028 376.284,502.496 374.352,502.496 C372.392,502.496 370.852,503 369.284,503.728 L369.788,504.932 C371.104,504.26 372.532,503.784 374.268,503.784 C377.208,503.784 378.972,505.268 378.972,508.152 L378.972,508.768 C377.6,508.404 376.228,508.152 374.24,508.152 C370.544,508.152 367.996,509.832 367.996,512.8 C367.996,515.824 370.852,517.336 373.512,517.336 L373.512,517.336 Z M373.596,516.048 C371.412,516.048 369.452,514.844 369.452,512.772 C369.452,510.728 371.132,509.384 374.156,509.384 C376.2,509.384 377.796,509.72 379,510.028 L379,511.652 C379,514.256 376.508,516.048 373.596,516.048 L373.596,516.048 Z M386.244,521.48 L387.616,521.48 L387.616,513.92 C388.792,515.712 390.64,517.336 393.496,517.336 C396.94,517.336 400.44,514.508 400.44,509.86 C400.44,505.156 396.94,502.384 393.496,502.384 C390.668,502.384 388.848,504.036 387.616,505.912 L387.616,502.72 L386.244,502.72 L386.244,521.48 Z M393.356,516.02 C390.388,516.02 387.532,513.556 387.532,509.888 C387.532,506.192 390.388,503.7 393.356,503.7 C396.352,503.7 398.956,506.108 398.956,509.86 C398.956,513.752 396.464,516.02 393.356,516.02 L393.356,516.02 Z M405.724,521.48 L407.096,521.48 L407.096,513.92 C408.272,515.712 410.12,517.336 412.976,517.336 C416.42,517.336 419.92,514.508 419.92,509.86 C419.92,505.156 416.42,502.384 412.976,502.384 C410.148,502.384 408.328,504.036 407.096,505.912 L407.096,502.72 L405.724,502.72 L405.724,521.48 Z M412.836,516.02 C409.868,516.02 407.012,513.556 407.012,509.888 C407.012,506.192 409.868,503.7 412.836,503.7 C415.832,503.7 418.436,506.108 418.436,509.86 C418.436,513.752 415.944,516.02 412.836,516.02 L412.836,516.02 Z" id="Online-radio-app" fill="#FFFFFF"></path>
                <path d="M184.116001,95 L199.828001,95 L199.828001,91.416 L188.052001,91.416 L188.052001,72.6 L184.116001,72.6 L184.116001,95 Z M217.598668,95.384 C224.478668,95.384 229.342668,90.104 229.342668,83.8 C229.342668,77.432 224.542668,72.216 217.662668,72.216 C210.782668,72.216 205.918668,77.496 205.918668,83.8 C205.918668,90.168 210.718668,95.384 217.598668,95.384 L217.598668,95.384 Z M217.662668,91.768 C213.214668,91.768 210.046668,88.152 210.046668,83.8 C210.046668,79.384 213.150668,75.832 217.598668,75.832 C222.046668,75.832 225.214668,79.448 225.214668,83.8 C225.214668,88.216 222.110668,91.768 217.662668,91.768 L217.662668,91.768 Z M247.561334,95.352 C253.417334,95.352 257.193334,91.992 257.193334,85.304 L257.193334,72.6 L253.257334,72.6 L253.257334,85.496 C253.257334,89.624 251.113334,91.736 247.625334,91.736 C244.105334,91.736 241.961334,89.496 241.961334,85.336 L241.961334,72.6 L238.025334,72.6 L238.025334,85.496 C238.025334,91.992 241.737334,95.352 247.561334,95.352 L247.561334,95.352 Z M266.868,95 L270.74,95 L270.74,79.064 L283.092,95 L286.388,95 L286.388,72.6 L282.516,72.6 L282.516,88.088 L270.516,72.6 L266.868,72.6 L266.868,95 Z M307.038667,95.384 C311.006667,95.384 314.174667,93.784 316.382667,91.896 L316.382667,82.488 L306.846667,82.488 L306.846667,85.912 L312.574667,85.912 L312.574667,90.104 C311.198667,91.128 309.278667,91.8 307.166667,91.8 C302.590667,91.8 299.550667,88.408 299.550667,83.8 C299.550667,79.448 302.686667,75.832 306.814667,75.832 C309.662667,75.832 311.358667,76.76 313.086667,78.232 L315.582667,75.256 C313.278667,73.304 310.878667,72.216 306.974667,72.216 C300.222667,72.216 295.422667,77.528 295.422667,83.8 C295.422667,90.392 300.030667,95.384 307.038667,95.384 L307.038667,95.384 Z M325.769333,95 L342.537333,95 L342.537333,91.48 L329.705333,91.48 L329.705333,85.464 L340.937333,85.464 L340.937333,81.944 L329.705333,81.944 L329.705333,76.12 L342.377333,76.12 L342.377333,72.6 L325.769333,72.6 L325.769333,95 Z M365.342666,95 L369.278666,95 L369.278666,85.88 L380.574666,85.88 L380.574666,82.296 L369.278666,82.296 L369.278666,76.184 L382.014666,76.184 L382.014666,72.6 L365.342666,72.6 L365.342666,95 Z M390.601332,95 L394.473332,95 L394.473332,79 L401.481332,89.496 L401.609332,89.496 L408.681332,78.936 L408.681332,95 L412.617332,95 L412.617332,72.6 L408.425332,72.6 L401.609332,83.192 L394.793332,72.6 L390.601332,72.6 L390.601332,95 Z" id="LOUNGE-FM" fill="#FFFFFF"></path>
            </g>
        </g>
    </g>
</svg>