<?xml version="1.0" encoding="UTF-8" standalone="no"?>
<svg width="600px" height="600px" viewBox="0 0 600 600" version="1.1" xmlns="http://www.w3.org/2000/svg" xmlns:xlink="http://www.w3.org/1999/xlink">
    <!-- Generator: Sketch 3.7.2 (28276) - http://www.bohemiancoding.com/sketch -->
    <title>lounge fm bg</title>
    <desc>Created with Sketch.</desc>
    <defs>
        <linearGradient x1="50%" y1="-22.7029915%" x2="50%" y2="100%" id="linearGradient-1">
            <stop stop-color="#381967" offset="0%"></stop>
            <stop stop-color="#A04ECD" offset="100%"></stop>
        </linearGradient>
        <rect id="path-2" x="0.421483426" y="0" width="682.255154" height="682"></rect>
        <linearGradient x1="0%" y1="0%" x2="101.999998%" y2="100.999999%" id="linearGradient-4">
            <stop stop-color="#5723AE" offset="0%"></stop>
            <stop stop-color="#C96DD8" offset="100%"></stop>
        </linearGradient>
        <linearGradient x1="0%" y1="0%" x2="101.999998%" y2="100.999999%" id="linearGradient-5">
            <stop stop-color="#3023AE" offset="0%"></stop>
            <stop stop-color="#C96DD8" offset="100%"></stop>
        </linearGradient>
    </defs>
    <g id="Page-1" stroke="none" stroke-width="1" fill="none" fill-rule="evenodd">
        <g id="lounge-fm-bg">
            <g id="Group" transform="translate(-36.000000, -54.000000)">
                <g id="Path-3-Copy-+-Path-3-Mask" transform="translate(0.987474, 0.000000)">
                    <mask id="mask-3" fill="white">
                        <use xlink:href="#path-2"></use>
                    </mask>
                    <use id="Mask" fill="url(#linearGradient-1)" xlink:href="#path-2"></use>
                    <path d="M35.0125255,246.890626 C121.387519,246.956581 149.573703,291.214844 219.518381,291.214844 C294.102063,291.214844 350.48767,379.660157 376.590663,379.660153 C493.615625,379.660135 303.207855,612.961109 149.573705,612.961109 C-4.06044511,612.961109 -81.1873897,246.801897 35.0125255,246.890626 Z" id="Path-3-Copy" fill="url(#linearGradient-4)" mask="url(#mask-3)"></path>
                    <path d="M318.137519,410.355471 C382.663769,410.355461 315.778611,336.737676 450.21564,317.953125 C535.090658,306.09375 557.403158,379.648439 635.012533,379.648438 C788.469077,379.648435 730.012518,804.499988 730.012518,804.499988 L277.012533,763.499988 L-39.4874667,709.499988 C-39.4874667,709.499988 -28.9364065,384.54251 14.1453382,379.648437 C120.707846,367.542968 107.337165,354.962633 180.693197,346.334958 C261.657046,336.8125 254.215742,410.355481 318.137519,410.355471 Z" id="Path-3" fill="url(#linearGradient-5)" mask="url(#mask-3)"></path>
                </g>
            </g>
        </g>
    </g>
</svg>