<?xml version="1.0" encoding="utf-8"?>
<!-- Generator: Adobe Illustrator 19.1.0, SVG Export Plug-In . SVG Version: 6.00 Build 0)  -->
<svg version="1.1" id="icons" xmlns="http://www.w3.org/2000/svg" xmlns:xlink="http://www.w3.org/1999/xlink" x="0px" y="0px"
	 viewBox="-207.3 326 630.3 99.5" style="enable-background:new -207.3 326 630.3 99.5;" xml:space="preserve">
<path fill="#ffffff" d="M-64.7,408.9h-139c-0.6,0-1.2-0.6-1.2-1.2v-78c0-0.6,0.6-1.2,1.2-1.2h138.8c0.6,0,1.2,0.6,1.2,1.2v77.8
	C-63.7,408.3-64.1,408.9-64.7,408.9z M-63.5,326H-204c-1.8,0-3.3,1.4-3.3,3.3v82.7c0,1.2,1,2.2,2.2,2.2h66.2v6.1H-160v2.4h51.8v-2.4
	h-21.3v-6.1h66.2c1.2,0,2.2-1,2.2-2.2v-83.5C-61,327-62,326-63.5,326z"/>
<path fill="#ffffff" d="M106,356.6H13.2v58h92.9v-58H106z M51,419.3c0,0.7,0.5,1.3,1.3,1.3h14.5c0.7,0,1.3-0.5,1.3-1.3l0,0H51L51,419.3z
	 M116.7,422.7H2.5c0,0-3.2-0.5-3.2-1.1c0-1.1,0-2.3,0-2.3H9.8v-62.7c0-2.3,1.8-4.1,4.1-4.1h91.5c2.3,0,4.1,1.8,4.1,4.1v62.7h10.6
	c0,0,0,1.3,0,2.3C119.9,422.2,116.7,422.7,116.7,422.7z"/>
<path fill="#ffffff" d="M188.9,374v47.2h62.9V374H188.9z M257.3,397.5c0-1.1-1-2.1-2.1-2.1c-1.1,0-2.1,1-2.1,2.1s1,2.1,2.1,2.1
	C256.3,399.7,257.3,398.6,257.3,397.5z M258.5,375.2v44.7c0,2-1.7,3.7-3.7,3.7h-68.9c-2,0-3.7-1.7-3.7-3.7v-44.7
	c0-2,1.7-3.7,3.7-3.7h69C256.9,371.5,258.5,373.1,258.5,375.2z"/>
<path fill="#ffffff" d="M335.7,421.2c0,1-0.9,1.9-1.9,1.9s-1.9-0.9-1.9-1.9s0.9-1.9,1.9-1.9S335.7,420.2,335.7,421.2z M331.1,375.7
	c0-0.6,0.5-1.1,1.1-1.1h3.2c0.6,0,1.1,0.5,1.1,1.1c0,0.6-0.5,1.1-1.1,1.1h-3.2C331.6,376.8,331.1,376.3,331.1,375.7z M322.5,380
	h22.7v36.8h-22.7V380z M343.5,371.4h-19.5c-2.1,0-3.8,1.7-3.8,3.8v46.6c0,2.1,1.7,3.8,3.8,3.8h19.5c2.1,0,3.8-1.7,3.8-3.8v-46.6
	C347.3,373,345.6,371.4,343.5,371.4z"/>
<path fill="#ffffff" d="M416.5,396.7h-11.2c-3.1,0-4.7,1.5-4.7,4.7v15.4c0,3.1,1.6,4.7,4.7,4.7h11.1c3.1,0,4.7-1.5,4.7-4.7v-15.5
	C421.2,398.2,419.6,396.7,416.5,396.7z M418.8,400.6v16.9c0,0.9-0.7,1.6-1.6,1.6h-12.6c-0.9,0-1.6-0.7-1.6-1.6v-16.9
	c0-0.9,0.7-1.6,1.6-1.6h12.6C418.1,399,418.8,399.7,418.8,400.6z M421.2,402.3v4.9h1.9v-4.9H421.2z M404.9,392.7l-0.1,4h12.4l-0.2-4
	H404.9z M404.8,421.4l0.1,4H417l0.2-4H404.8z"/>
</svg>
