<?xml version="1.0" encoding="utf-8"?>
<!-- Generator: Avocode 2.4.5 - http://avocode.com -->
<svg height="46" width="22" xmlns:xlink="http://www.w3.org/1999/xlink" xmlns="http://www.w3.org/2000/svg" viewBox="0 0 22 46">
    <path fill="#f41f52" fill-rule="evenodd" d="M 14.94 0.23 L 19.02 0.23 L 19.02 0.6 L 14.94 0.6 L 14.94 0.23 Z M 0.55 5.57 L 0.91 5.57 L 0.91 7.76 L 0.55 7.76 L 0.55 5.57 Z M 0.55 8.87 L 0.91 8.87 L 0.91 11.07 L 0.55 11.07 L 0.55 8.87 Z M 19.03 0.78 L 4.04 0.78 C 2.42 0.78 1.09 2.11 1.09 3.75 L 1.09 42.8 C 1.09 44.44 2.42 45.77 4.04 45.77 L 19.04 45.77 C 20.66 45.77 21.99 44.44 21.99 42.8 L 21.99 3.75 C 21.99 2.11 20.66 0.78 19.03 0.78 Z M 9.5 4.1 L 13.57 4.1 L 13.57 4.47 L 9.5 4.47 L 9.5 4.1 Z M 11.52 44.24 C 10.51 44.24 9.69 43.42 9.69 42.4 C 9.69 41.39 10.51 40.57 11.52 40.57 C 12.52 40.57 13.34 41.39 13.34 42.4 C 13.34 43.41 12.52 44.24 11.52 44.24 L 11.52 44.24 Z M 20.71 39.09 L 2.37 39.09 L 2.37 7.77 L 20.71 7.77 L 20.71 39.09 Z M 20.71 39.09" />
</svg>