<?xml version="1.0" encoding="utf-8"?>
<!-- Generator: Avocode 2.4.5 - http://avocode.com -->
<svg height="174" width="132" xmlns:xlink="http://www.w3.org/1999/xlink" xmlns="http://www.w3.org/2000/svg" viewBox="0 0 132 174">
    <path fill="#f42752" fill-rule="evenodd" d="M 26.37 119.26 C 13.07 109.93 0.05 101.72 0.05 84.25 C 0.05 65.29 6.98 61.3 23.47 36.66 C 39.96 12.03 52.85 0.69 81.76 0.69 C 119.8 0.69 131.14 32.69 131.14 69.4 C 131.14 106.11 92.18 138.84 66.16 138.84 C 53.35 138.84 39.26 128.3 26.37 119.26 Z M 26.37 119.26" />
    <path fill="#000000" fill-rule="evenodd" d="M 34.86 174 L 82.7 174 L 82.7 161.61 L 34.86 161.61 L 34.86 174 Z M 39.74 35.1 L 32.74 48 L 25.74 35.1 L 15 35.1 L 15 76.92 L 25.49 76.92 L 25.49 54.26 L 30.12 63.28 L 35.36 63.28 L 39.99 54.26 L 39.99 76.92 L 50.79 76.92 L 50.79 35.1 L 39.74 35.1 Z M 72.28 35.1 L 72.28 76.92 L 100.08 76.92 L 100.08 67.22 L 83.09 67.22 L 83.09 60.21 L 97.21 60.21 L 97.21 50.5 L 83.09 50.5 L 83.09 44.8 L 100.06 44.8 L 100.06 35.1 L 72.28 35.1 Z M 25.4 98.67 L 15.2 140.5 L 25.98 140.5 L 27.83 132.42 L 37.52 132.42 L 39.37 140.5 L 50.59 140.5 L 40.39 98.67 L 25.4 98.67 Z M 32.61 111.32 L 35.61 124.16 L 29.68 124.16 L 32.61 111.32 Z M 72.19 98.76 L 72.19 108.47 L 80.74 108.47 L 80.74 140.59 L 91.54 140.59 L 91.54 108.47 L 100.09 108.47 L 100.09 98.76 L 72.19 98.76 Z M 72.19 98.76" />
</svg>