<?xml version="1.0" encoding="utf-8"?>
<!-- Generator: Avocode 2.4.5 - http://avocode.com -->
<svg height="230" width="174" xmlns:xlink="http://www.w3.org/1999/xlink" xmlns="http://www.w3.org/2000/svg" viewBox="0 0 174 230">
    <path fill="#f42752" fill-rule="evenodd" d="M 34.96 157.54 C 17.32 145.22 0.06 134.37 0.06 111.29 C 0.06 86.24 9.25 80.97 31.11 48.43 C 52.98 15.89 70.07 0.91 108.39 0.91 C 158.82 0.91 173.87 43.18 173.87 91.67 C 173.87 140.17 122.2 183.4 87.71 183.4 C 70.73 183.4 52.05 169.48 34.96 157.54 Z M 34.96 157.54" />
    <path fill="#ffffff" fill-rule="evenodd" d="M 46.22 229.85 L 109.64 229.85 L 109.64 213.48 L 46.22 213.48 L 46.22 229.85 Z M 46.22 229.85" />
    <path fill="#ffffff" fill-rule="evenodd" d="M 52.68 46.37 L 43.41 63.4 L 34.13 46.37 L 19.89 46.37 L 19.89 101.61 L 33.8 101.61 L 33.8 71.67 L 39.93 83.59 L 46.88 83.59 L 53.01 71.67 L 53.01 101.61 L 67.34 101.61 L 67.34 46.37 L 52.68 46.37 Z M 52.68 46.37" />
    <path fill="#ffffff" fill-rule="evenodd" d="M 95.83 46.37 L 95.83 101.61 L 132.68 101.61 L 132.68 88.79 L 110.16 88.79 L 110.16 79.53 L 128.87 79.53 L 128.87 66.71 L 110.16 66.71 L 110.16 59.19 L 132.65 59.19 L 132.65 46.37 L 95.83 46.37 Z M 95.83 46.37" />
    <path fill="#ffffff" fill-rule="evenodd" d="M 33.68 130.35 L 20.16 185.59 L 34.44 185.59 L 36.89 174.92 L 49.74 174.92 L 52.19 185.59 L 67.07 185.59 L 53.54 130.35 L 33.68 130.35 Z M 43.23 147.05 L 47.2 164.01 L 39.34 164.01 L 43.23 147.05 Z M 43.23 147.05" />
    <path fill="#ffffff" fill-rule="evenodd" d="M 95.71 130.46 L 95.71 143.28 L 107.04 143.28 L 107.04 185.71 L 121.36 185.71 L 121.36 143.28 L 132.69 143.28 L 132.69 130.46 L 95.71 130.46 Z M 95.71 130.46" />
</svg>