<?xml version="1.0" encoding="utf-8"?>
<!-- Generator: Avocode 2.4.5 - http://avocode.com -->
<svg height="350" width="350" xmlns:xlink="http://www.w3.org/1999/xlink" xmlns="http://www.w3.org/2000/svg" viewBox="0 0 350 350">
    <defs>
        <linearGradient y2="67%" y1="0%" x2="74%" x1="0%" id="gradient-1">
            <stop stop-color="#4e00e0" offset="0%" />
            <stop stop-color="#1b6ef8" offset="100%" />
        </linearGradient>
    </defs>
    <path fill="url(#gradient-1)" fill-rule="evenodd" d="M 0 0 L 350 0 L 350 350 L 0 350 L 0 0 Z M 0 0" />
    <path fill="#f42752" fill-rule="evenodd" d="M 140.37 210.26 C 127.07 200.93 114.05 192.72 114.05 175.25 C 114.05 156.29 120.98 152.3 137.47 127.66 C 153.96 103.03 166.85 91.69 195.76 91.69 C 233.8 91.69 245.14 123.69 245.14 160.4 C 245.14 197.11 206.18 229.84 180.16 229.84 C 167.35 229.84 153.26 219.3 140.37 210.26 Z M 140.37 210.26" />
    <path fill="#ffffff" fill-rule="evenodd" d="M 148.86 265 L 196.7 265 L 196.7 252.61 L 148.86 252.61 L 148.86 265 Z M 148.86 265" />
    <path fill="#ffffff" fill-rule="evenodd" d="M 153.74 126.1 L 146.74 139 L 139.74 126.1 L 129 126.1 L 129 167.92 L 139.49 167.92 L 139.49 145.26 L 144.12 154.28 L 149.36 154.28 L 153.99 145.26 L 153.99 167.92 L 164.79 167.92 L 164.79 126.1 L 153.74 126.1 Z M 153.74 126.1" />
    <path fill="#ffffff" fill-rule="evenodd" d="M 186.28 126.1 L 186.28 167.92 L 214.08 167.92 L 214.08 158.22 L 197.09 158.22 L 197.09 151.21 L 211.21 151.21 L 211.21 141.5 L 197.09 141.5 L 197.09 135.8 L 214.06 135.8 L 214.06 126.1 L 186.28 126.1 Z M 186.28 126.1" />
    <path fill="#ffffff" fill-rule="evenodd" d="M 139.4 189.67 L 129.2 231.5 L 139.98 231.5 L 141.83 223.42 L 151.52 223.42 L 153.37 231.5 L 164.59 231.5 L 154.39 189.67 L 139.4 189.67 Z M 146.61 202.32 L 149.61 215.16 L 143.68 215.16 L 146.61 202.32 Z M 146.61 202.32" />
    <path fill="#ffffff" fill-rule="evenodd" d="M 186.19 189.76 L 186.19 199.47 L 194.74 199.47 L 194.74 231.59 L 205.54 231.59 L 205.54 199.47 L 214.09 199.47 L 214.09 189.76 L 186.19 189.76 Z M 186.19 189.76" />
</svg>