<?xml version="1.0" encoding="utf-8"?>
<!-- Generator: Avocode 2.4.5 - http://avocode.com -->
<svg height="36" width="48" xmlns:xlink="http://www.w3.org/1999/xlink" xmlns="http://www.w3.org/2000/svg" viewBox="0 0 48 36">
    <path fill="#ffffff" opacity="0.8" fill-rule="evenodd" d="M 0 1 C 0 0.45 0.44 0 1 0 L 47 0 C 47.55 0 48 0.46 48 1 L 48 35 C 48 35.55 47.56 36 47 36 L 1 36 C 0.45 36 0 35.54 0 35 L 0 1 Z M 3.63 1.98 L 44.55 1.98 C 44.68 1.98 44.75 1.98 44.88 2.05 L 30.43 16.43 L 29.04 17.82 L 24.09 22.84 L 3.3 2.05 C 3.43 1.98 3.5 1.98 3.63 1.98 L 3.63 1.98 Z M 1.98 3.63 L 1.98 3.5 L 16.37 17.89 L 1.98 32.21 L 1.98 3.63 Z M 44.55 34.32 L 3.63 34.32 C 3.37 34.32 3.1 34.25 2.9 34.12 L 17.75 19.27 L 23.43 24.95 C 23.63 25.15 23.89 25.21 24.16 25.21 L 24.22 25.21 C 24.49 25.21 24.75 25.08 24.88 24.88 L 30.49 19.27 L 45.34 34.12 C 45.08 34.25 44.81 34.32 44.55 34.32 L 44.55 34.32 Z M 46.2 32.21 L 31.81 17.89 L 46.2 3.5 L 46.2 3.63 L 46.2 32.21 Z M 46.2 32.21" />
</svg>