<?xml version="1.0" encoding="utf-8"?>
<!-- Generator: Avocode 2.4.5 - http://avocode.com -->
<svg height="69" width="64" xmlns:xlink="http://www.w3.org/1999/xlink" xmlns="http://www.w3.org/2000/svg" viewBox="0 0 64 69">
    <path fill="#ffffff" fill-rule="evenodd" d="M 39.6 62.81 C 36.59 62.81 34.16 65.25 34.16 68.26 L 34.16 68.47 L 45.05 68.47 L 45.05 68.26 C 45.05 65.25 42.61 62.81 39.6 62.81 Z M 35.77 13.07 C 35.77 11.43 34.68 10.06 33.2 9.59 L 33.2 5.38 C 34.2 4.95 34.9 3.96 34.9 2.8 C 34.9 1.25 33.65 0 32.11 0 C 30.56 0 29.31 1.25 29.31 2.8 C 29.31 3.95 30.01 4.94 31.01 5.37 L 31.01 9.58 C 29.53 10.05 28.44 11.42 28.44 13.06 L 28.44 13.17 L 35.77 13.17 L 35.77 13.07 Z M 42.95 22.15 C 42.95 18.15 39.71 14.91 35.72 14.91 L 28.5 14.91 C 24.5 14.91 21.26 18.15 21.26 22.15 L 21.26 26.19 L 42.96 26.19 L 42.96 22.15 L 42.95 22.15 Z M 28.88 21.61 C 28.88 22.23 28.38 22.73 27.77 22.73 C 27.15 22.73 26.66 22.23 26.66 21.61 L 26.66 19.49 C 26.66 18.87 27.15 18.37 27.77 18.37 C 28.38 18.37 28.88 18.87 28.88 19.49 L 28.88 21.61 Z M 37.56 21.61 C 37.56 22.23 37.06 22.73 36.44 22.73 C 35.83 22.73 35.33 22.23 35.33 21.61 L 35.33 19.49 C 35.33 18.87 35.83 18.37 36.44 18.37 C 37.06 18.37 37.56 18.87 37.56 19.49 L 37.56 21.61 Z M 51.11 33.24 L 51.11 42.64 L 54.47 48.28 L 58.6 45.81 L 51.11 33.24 Z M 63.42 50.22 C 62.37 48.27 59.93 47.53 57.97 48.57 C 56.02 49.62 55.28 52.05 56.32 54.02 C 57.05 55.37 58.43 56.14 59.86 56.14 L 57.84 52.36 L 61.19 50.57 L 63.21 54.35 C 64.01 53.16 64.14 51.58 63.42 50.22 Z M 9.74 48.28 L 13.1 42.64 L 13.1 33.24 L 5.61 45.81 L 9.74 48.28 Z M 6.24 48.58 C 4.28 47.53 1.84 48.27 0.79 50.23 C 0.07 51.58 0.2 53.16 1 54.36 L 3.02 50.58 L 6.36 52.37 L 4.34 56.14 C 5.78 56.14 7.16 55.37 7.88 54.02 C 8.93 52.06 8.19 49.62 6.24 48.58 Z M 36.72 53.17 L 42.25 53.17 L 42.25 61.03 L 36.72 61.03 L 36.72 53.17 Z M 24.61 62.81 C 21.6 62.81 19.16 65.25 19.16 68.26 L 19.16 68.47 L 30.05 68.47 L 30.05 68.26 C 30.05 65.25 27.62 62.81 24.61 62.81 Z M 21.73 53.17 L 27.26 53.17 L 27.26 61.03 L 21.73 61.03 L 21.73 53.17 Z M 41.14 28.17 L 23.07 28.17 C 18.69 28.17 15.14 31.72 15.14 36.1 L 15.14 43.03 C 15.14 47.41 18.69 50.96 23.07 50.96 L 41.15 50.96 C 45.53 50.96 49.08 47.41 49.08 43.03 L 49.08 36.1 C 49.07 31.72 45.52 28.17 41.14 28.17 Z M 33.83 42.09 C 33.83 41.74 33.72 41.39 33.51 41.1 L 35.25 37.52 L 32.53 40.43 C 31.85 40.25 31.1 40.5 30.68 41.12 C 30.48 41.42 30.38 41.76 30.38 42.09 L 24.79 42.09 C 24.79 38.05 28.07 34.77 32.11 34.77 C 36.15 34.77 39.43 38.05 39.43 42.09 L 33.83 42.09 Z M 33.83 42.09" />
</svg>