<?xml version="1.0" encoding="UTF-8" standalone="no"?>
<svg width="600px" height="600px" viewBox="0 0 600 600" version="1.1" xmlns="http://www.w3.org/2000/svg" xmlns:xlink="http://www.w3.org/1999/xlink">
    <!-- Generator: Sketch 3.7.2 (28276) - http://www.bohemiancoding.com/sketch -->
    <title>blevogue text</title>
    <desc>Created with Sketch.</desc>
    <defs></defs>
    <g id="Page-1" stroke="none" stroke-width="1" fill="none" fill-rule="evenodd">
        <g id="blevogue-text">
            <rect id="Rectangle-12980" x="0" y="0" width="600" height="600"></rect>
            <path d="M208.348,339 L209.804,339 L209.804,330.124 L220.892,330.124 L220.892,328.78 L209.804,328.78 L209.804,320.744 L222.152,320.744 L222.152,319.4 L208.348,319.4 L208.348,339 Z M231.048,339.336 C233.764,339.336 235.528,337.992 236.508,336.62 L236.508,339 L237.852,339 L237.852,330.096 C237.852,328.332 237.348,327.016 236.396,326.064 C235.36,325.028 233.82,324.496 231.888,324.496 C229.928,324.496 228.388,325 226.82,325.728 L227.324,326.932 C228.64,326.26 230.068,325.784 231.804,325.784 C234.744,325.784 236.508,327.268 236.508,330.152 L236.508,330.768 C235.136,330.404 233.764,330.152 231.776,330.152 C228.08,330.152 225.532,331.832 225.532,334.8 C225.532,337.824 228.388,339.336 231.048,339.336 L231.048,339.336 Z M231.132,338.048 C228.948,338.048 226.988,336.844 226.988,334.772 C226.988,332.728 228.668,331.384 231.692,331.384 C233.736,331.384 235.332,331.72 236.536,332.028 L236.536,333.652 C236.536,336.256 234.044,338.048 231.132,338.048 L231.132,338.048 Z M248.4,339.28 C251.144,339.28 253.328,337.656 253.328,335.108 C253.328,332.532 250.92,331.692 248.624,331.048 C246.58,330.46 244.648,329.872 244.648,328.276 C244.648,326.792 245.936,325.728 247.896,325.728 C249.408,325.728 250.976,326.288 252.292,327.156 L253.02,326.008 C251.592,325.056 249.66,324.44 247.952,324.44 C245.18,324.44 243.248,326.092 243.248,328.388 C243.248,330.992 245.824,331.692 248.148,332.364 C250.136,332.924 251.928,333.54 251.928,335.22 C251.928,336.928 250.416,337.992 248.484,337.992 C246.664,337.992 244.928,337.32 243.36,336.116 L242.548,337.208 C244.06,338.44 246.328,339.28 248.4,339.28 L248.4,339.28 Z M258.696,339 L260.068,339 L260.068,330.74 C260.068,327.772 262.224,325.644 265.024,325.644 C267.908,325.644 269.56,327.576 269.56,330.516 L269.56,339 L270.932,339 L270.932,330.264 C270.932,326.848 268.832,324.384 265.22,324.384 C262.616,324.384 261.02,325.7 260.068,327.38 L260.068,318.56 L258.696,318.56 L258.696,339 Z M277.056,339 L278.428,339 L278.428,324.72 L277.056,324.72 L277.056,339 Z M276.888,320.996 L278.596,320.996 L278.596,319.12 L276.888,319.12 L276.888,320.996 Z M291.16,339.336 C295.416,339.336 298.524,335.864 298.524,331.86 C298.524,327.8 295.444,324.384 291.216,324.384 C286.96,324.384 283.852,327.856 283.852,331.86 C283.852,335.92 286.932,339.336 291.16,339.336 L291.16,339.336 Z M291.216,338.048 C287.912,338.048 285.336,335.304 285.336,331.86 C285.336,328.444 287.94,325.672 291.16,325.672 C294.38,325.672 297.04,328.416 297.04,331.86 C297.04,335.276 294.38,338.048 291.216,338.048 L291.216,338.048 Z M303.752,339 L305.124,339 L305.124,330.74 C305.124,327.772 307.28,325.644 310.08,325.644 C312.964,325.644 314.616,327.576 314.616,330.516 L314.616,339 L315.988,339 L315.988,330.264 C315.988,326.848 313.888,324.384 310.276,324.384 C307.672,324.384 306.076,325.7 305.124,327.38 L305.124,324.72 L303.752,324.72 L303.752,339 Z M338.568,339.336 C342.012,339.336 345.512,336.508 345.512,331.86 C345.512,327.156 342.012,324.384 338.568,324.384 C335.74,324.384 333.92,326.036 332.688,327.912 L332.688,318.56 L331.316,318.56 L331.316,339 L332.688,339 L332.688,335.92 C333.864,337.712 335.712,339.336 338.568,339.336 L338.568,339.336 Z M338.428,338.02 C335.46,338.02 332.604,335.556 332.604,331.888 C332.604,328.192 335.46,325.7 338.428,325.7 C341.424,325.7 344.028,328.108 344.028,331.86 C344.028,335.752 341.536,338.02 338.428,338.02 L338.428,338.02 Z M350.992,339 L352.364,339 L352.364,318.56 L350.992,318.56 L350.992,339 Z M365.096,339.336 C369.352,339.336 372.46,335.864 372.46,331.86 C372.46,327.8 369.38,324.384 365.152,324.384 C360.896,324.384 357.788,327.856 357.788,331.86 C357.788,335.92 360.868,339.336 365.096,339.336 L365.096,339.336 Z M365.152,338.048 C361.848,338.048 359.272,335.304 359.272,331.86 C359.272,328.444 361.876,325.672 365.096,325.672 C368.316,325.672 370.976,328.416 370.976,331.86 C370.976,335.276 368.316,338.048 365.152,338.048 L365.152,338.048 Z M383.96,343.536 C386.06,343.536 387.908,342.864 389.14,341.632 C390.288,340.484 390.96,338.86 390.96,336.788 L390.96,324.72 L389.588,324.72 L389.588,327.576 C388.412,325.896 386.48,324.384 383.624,324.384 C380.18,324.384 376.764,327.044 376.764,331.16 C376.764,335.304 380.18,337.936 383.624,337.936 C386.452,337.936 388.356,336.396 389.588,334.632 L389.588,336.704 C389.588,340.372 387.264,342.248 383.988,342.248 C381.888,342.248 379.928,341.548 378.22,340.232 L377.408,341.352 C379.368,342.808 381.58,343.536 383.96,343.536 L383.96,343.536 Z M383.764,336.62 C380.824,336.62 378.248,334.38 378.248,331.16 C378.248,327.772 380.768,325.7 383.764,325.7 C386.732,325.7 389.672,327.828 389.672,331.132 C389.672,334.436 386.732,336.62 383.764,336.62 L383.764,336.62 Z" id="Fashion-blog" fill="#FFFFFF"></path>
            <path d="M100.283,281.17 L104.839,281.17 L110.211,265.598 L115.583,281.17 L120.139,281.17 L128.265,257.2 L122.791,257.2 L117.861,273.316 L112.523,257.132 L108.035,257.132 L102.697,273.316 L97.767,257.2 L92.157,257.2 L100.283,281.17 Z M144.341,281.408 C151.685,281.408 157.023,275.866 157.023,269.1 C157.023,262.266 151.753,256.792 144.409,256.792 C137.065,256.792 131.727,262.334 131.727,269.1 C131.727,275.934 136.997,281.408 144.341,281.408 L144.341,281.408 Z M144.409,276.58 C140.193,276.58 137.201,273.18 137.201,269.1 C137.201,264.952 140.125,261.62 144.341,261.62 C148.557,261.62 151.549,265.02 151.549,269.1 C151.549,273.248 148.625,276.58 144.409,276.58 L144.409,276.58 Z M163.681,281 L168.917,281 L168.917,273.384 L172.963,273.384 L178.131,281 L184.251,281 L178.437,272.5 C181.463,271.378 183.537,268.964 183.537,265.122 C183.537,262.81 182.823,260.94 181.497,259.614 C179.933,258.05 177.587,257.2 174.561,257.2 L163.681,257.2 L163.681,281 Z M168.917,268.76 L168.917,261.926 L174.119,261.926 C176.669,261.926 178.233,263.082 178.233,265.326 C178.233,267.4 176.771,268.76 174.221,268.76 L168.917,268.76 Z M190.263,281 L195.499,281 L195.499,273.724 L198.253,270.868 L205.631,281 L211.921,281 L201.789,267.298 L211.479,257.2 L205.155,257.2 L195.499,267.604 L195.499,257.2 L190.263,257.2 L190.263,281 Z M229.521,281 L234.757,281 L234.757,257.2 L229.521,257.2 L229.521,281 Z M242.707,281 L247.875,281 L247.875,265.87 L259.401,281 L263.855,281 L263.855,257.2 L258.687,257.2 L258.687,271.854 L247.535,257.2 L242.707,257.2 L242.707,281 Z M283.767,281 L289.003,281 L289.003,273.86 L292.981,273.86 C298.319,273.86 302.603,271.004 302.603,265.496 C302.603,260.566 299.169,257.2 293.491,257.2 L283.767,257.2 L283.767,281 Z M289.003,269.202 L289.003,261.926 L293.049,261.926 C295.667,261.926 297.299,263.184 297.299,265.53 C297.299,267.638 295.769,269.202 293.151,269.202 L289.003,269.202 Z M308.479,281 L313.715,281 L313.715,273.384 L317.761,273.384 L322.929,281 L329.049,281 L323.235,272.5 C326.261,271.378 328.335,268.964 328.335,265.122 C328.335,262.81 327.621,260.94 326.295,259.614 C324.731,258.05 322.385,257.2 319.359,257.2 L308.479,257.2 L308.479,281 Z M313.715,268.76 L313.715,261.926 L318.917,261.926 C321.467,261.926 323.031,263.082 323.031,265.326 C323.031,267.4 321.569,268.76 319.019,268.76 L313.715,268.76 Z M346.621,281.408 C353.965,281.408 359.303,275.866 359.303,269.1 C359.303,262.266 354.033,256.792 346.689,256.792 C339.345,256.792 334.007,262.334 334.007,269.1 C334.007,275.934 339.277,281.408 346.621,281.408 L346.621,281.408 Z M346.689,276.58 C342.473,276.58 339.481,273.18 339.481,269.1 C339.481,264.952 342.405,261.62 346.621,261.62 C350.837,261.62 353.829,265.02 353.829,269.1 C353.829,273.248 350.905,276.58 346.689,276.58 L346.689,276.58 Z M377.419,281.408 C381.771,281.408 385.137,279.708 387.585,277.634 L387.585,267.298 L377.249,267.298 L377.249,271.82 L382.519,271.82 L382.519,275.22 C381.193,276.172 379.493,276.648 377.589,276.648 C373.373,276.648 370.381,273.452 370.381,269.1 C370.381,264.986 373.407,261.62 377.215,261.62 C379.969,261.62 381.601,262.504 383.437,264.034 L386.735,260.056 C384.253,257.948 381.669,256.792 377.385,256.792 C370.177,256.792 364.907,262.334 364.907,269.1 C364.907,276.206 370.007,281.408 377.419,281.408 L377.419,281.408 Z M394.617,281 L399.853,281 L399.853,273.384 L403.899,273.384 L409.067,281 L415.187,281 L409.373,272.5 C412.399,271.378 414.473,268.964 414.473,265.122 C414.473,262.81 413.759,260.94 412.433,259.614 C410.869,258.05 408.523,257.2 405.497,257.2 L394.617,257.2 L394.617,281 Z M399.853,268.76 L399.853,261.926 L405.055,261.926 C407.605,261.926 409.169,263.082 409.169,265.326 C409.169,267.4 407.707,268.76 405.157,268.76 L399.853,268.76 Z M421.199,281 L439.321,281 L439.321,276.342 L426.401,276.342 L426.401,271.344 L437.621,271.344 L437.621,266.686 L426.401,266.686 L426.401,261.858 L439.151,261.858 L439.151,257.2 L421.199,257.2 L421.199,281 Z M454.445,281.34 C459.579,281.34 463.183,278.688 463.183,273.962 C463.183,269.746 460.463,268.012 455.635,266.754 C451.521,265.7 450.501,265.19 450.501,263.626 C450.501,262.402 451.555,261.484 453.561,261.484 C455.567,261.484 457.641,262.368 459.749,263.83 L462.469,259.886 C460.055,257.948 457.097,256.86 453.629,256.86 C448.767,256.86 445.299,259.716 445.299,264.034 C445.299,268.828 448.393,270.154 453.187,271.378 C457.165,272.398 457.981,273.078 457.981,274.404 C457.981,275.866 456.689,276.716 454.547,276.716 C451.827,276.716 449.583,275.594 447.441,273.826 L444.347,277.532 C447.203,280.082 450.841,281.34 454.445,281.34 L454.445,281.34 Z M477.865,281.34 C482.999,281.34 486.603,278.688 486.603,273.962 C486.603,269.746 483.883,268.012 479.055,266.754 C474.941,265.7 473.921,265.19 473.921,263.626 C473.921,262.402 474.975,261.484 476.981,261.484 C478.987,261.484 481.061,262.368 483.169,263.83 L485.889,259.886 C483.475,257.948 480.517,256.86 477.049,256.86 C472.187,256.86 468.719,259.716 468.719,264.034 C468.719,268.828 471.813,270.154 476.607,271.378 C480.585,272.398 481.401,273.078 481.401,274.404 C481.401,275.866 480.109,276.716 477.967,276.716 C475.247,276.716 473.003,275.594 470.861,273.826 L467.767,277.532 C470.623,280.082 474.261,281.34 477.865,281.34 L477.865,281.34 Z M511.383,281 L516.755,281 L516.755,275.696 L511.383,275.696 L511.383,281 Z M501.897,281 L507.269,281 L507.269,275.696 L501.897,275.696 L501.897,281 Z M492.411,281 L497.783,281 L497.783,275.696 L492.411,275.696 L492.411,281 Z" id="WORK-IN-PROGRESS…" fill="#FFFFFF"></path>
        </g>
    </g>
</svg>