<?xml version="1.0" encoding="UTF-8" standalone="no"?>
<!-- Created with Inkscape (http://www.inkscape.org/) -->

<svg
   xmlns:dc="http://purl.org/dc/elements/1.1/"
   xmlns:cc="http://creativecommons.org/ns#"
   xmlns:rdf="http://www.w3.org/1999/02/22-rdf-syntax-ns#"
   xmlns:svg="http://www.w3.org/2000/svg"
   xmlns="http://www.w3.org/2000/svg"
   xmlns:sodipodi="http://sodipodi.sourceforge.net/DTD/sodipodi-0.dtd"
   xmlns:inkscape="http://www.inkscape.org/namespaces/inkscape"
   id="svg4136"
   version="1.1"
   inkscape:version="0.91 r13725"
   width="185"
   height="116"
   viewBox="0 0 185 116"
   sodipodi:docname="bg-letters-pattern-1.svg">
  <metadata
     id="metadata4142">
    <rdf:RDF>
      <cc:Work
         rdf:about="">
        <dc:format>image/svg+xml</dc:format>
        <dc:type
           rdf:resource="http://purl.org/dc/dcmitype/StillImage" />
        <dc:title></dc:title>
      </cc:Work>
    </rdf:RDF>
  </metadata>
  <defs
     id="defs4140" />
  <sodipodi:namedview
     pagecolor="#ffffff"
     bordercolor="#666666"
     borderopacity="1"
     objecttolerance="10"
     gridtolerance="10"
     guidetolerance="10"
     inkscape:pageopacity="0"
     inkscape:pageshadow="2"
     inkscape:window-width="1280"
     inkscape:window-height="961"
     id="namedview4138"
     showgrid="false"
     inkscape:zoom="1.4887464"
     inkscape:cx="14.6406"
     inkscape:cy="60.134549"
     inkscape:window-x="-8"
     inkscape:window-y="-8"
     inkscape:window-maximized="1"
     inkscape:current-layer="svg4136" />
  <g
     id="g4194"
     transform="translate(0.16733019,-22.076014)">
    <path
       id="path4156"
       d="m 0.09,69.79 0,-11.33 5.68,0 0,11.21 c 0,2.92 1.47,4.3 3.71,4.3 2.25,0 3.72,-1.33 3.72,-4.15 l 0,-11.36 5.68,0 0,11.19 c 0,6.51 -3.72,9.37 -9.45,9.37 -5.73,0 -9.34,-2.92 -9.34,-9.23"
       inkscape:connector-curvature="0"
       style="fill:rgba(63, 0, 64, 0.08);fill-rule:evenodd" />
    <path
       id="path4158"
       d="m 27.36,68.38 -6.63,-9.92 6.43,0 3.57,5.68 3.6,-5.68 6.28,0 -6.63,9.86 6.92,10.32 -6.43,0 -3.86,-6.08 -3.89,6.08 -6.28,0 6.92,-10.26 z m 0,0"
       inkscape:connector-curvature="0"
       style="fill:rgba(63, 0, 64, 0.08);fill-rule:evenodd" />
    <path
       id="path4160"
       d="m 98.64,69.79 0,-11.33 5.68,0 0,11.21 c 0,2.92 1.47,4.3 3.71,4.3 2.25,0 3.72,-1.33 3.72,-4.15 l 0,-11.36 5.67,0 0,11.19 c 0,6.51 -3.71,9.37 -9.44,9.37 -5.74,0 -9.34,-2.92 -9.34,-9.23"
       inkscape:connector-curvature="0"
       style="fill:rgba(63, 0, 64, 0.08);fill-rule:evenodd" />
    <path
       id="path4162"
       d="m 120.86,58.46 5.62,0 0,20.18 -5.62,0 0,-20.18 z m 0,0"
       inkscape:connector-curvature="0"
       style="fill:rgba(63, 0, 64, 0.08);fill-rule:evenodd" />
    <path
       id="path4168"
       d="m 48.13,127.48 0,-11.33 5.68,0 0,11.22 c 0,2.91 1.47,4.29 3.71,4.29 2.25,0 3.72,-1.33 3.72,-4.15 l 0,-11.36 5.67,0 0,11.19 c 0,6.51 -3.71,9.37 -9.44,9.37 -5.74,0 -9.34,-2.91 -9.34,-9.23"
       inkscape:connector-curvature="0"
       style="fill:rgba(63, 0, 64, 0.08);fill-rule:evenodd" />
    <path
       id="path4170"
       d="m 75.4,126.07 -6.63,-9.92 6.42,0 3.57,5.68 3.61,-5.68 6.28,0 -6.63,9.86 6.92,10.32 -6.43,0 -3.86,-6.08 -3.89,6.08 -6.28,0 6.92,-10.26 z m 0,0"
       inkscape:connector-curvature="0"
       style="fill:rgba(63, 0, 64, 0.08);fill-rule:evenodd" />
    <path
       id="path4172"
       d="m 146.68,127.48 0,-11.33 5.67,0 0,11.22 c 0,2.91 1.47,4.29 3.72,4.29 2.25,0 3.72,-1.33 3.72,-4.15 l 0,-11.36 5.67,0 0,11.19 c 0,6.51 -3.71,9.37 -9.44,9.37 -5.74,0 -9.34,-2.91 -9.34,-9.23"
       inkscape:connector-curvature="0"
       style="fill:rgba(63, 0, 64, 0.08);fill-rule:evenodd" />
    <path
       id="path4174"
       d="m 168.9,116.15 5.62,0 0,20.18 -5.62,0 0,-20.18 z m 0,0"
       inkscape:connector-curvature="0"
       style="fill:rgba(63, 0, 64, 0.08);fill-rule:evenodd" />
  </g>
</svg>
