<?xml version="1.0" encoding="UTF-8" standalone="no"?>
<svg width="600px" height="600px" viewBox="0 0 600 600" version="1.1" xmlns="http://www.w3.org/2000/svg" xmlns:xlink="http://www.w3.org/1999/xlink">
    <!-- Generator: Sketch 3.7.2 (28276) - http://www.bohemiancoding.com/sketch -->
    <title>apex text</title>
    <desc>Created with Sketch.</desc>
    <defs></defs>
    <g id="Page-1" stroke="none" stroke-width="1" fill="none" fill-rule="evenodd">
        <g id="apex-text">
            <g id="Group-2">
                <rect id="Rectangle-55" x="0" y="0" width="600" height="600"></rect>
                <path d="M132.788,517 L134.244,517 L134.244,507.816 L146.788,507.816 L146.788,517 L148.244,517 L148.244,497.4 L146.788,497.4 L146.788,506.472 L134.244,506.472 L134.244,497.4 L132.788,497.4 L132.788,517 Z M161.088,517.336 C165.344,517.336 168.452,513.864 168.452,509.86 C168.452,505.8 165.372,502.384 161.144,502.384 C156.888,502.384 153.78,505.856 153.78,509.86 C153.78,513.92 156.86,517.336 161.088,517.336 L161.088,517.336 Z M161.144,516.048 C157.84,516.048 155.264,513.304 155.264,509.86 C155.264,506.444 157.868,503.672 161.088,503.672 C164.308,503.672 166.968,506.416 166.968,509.86 C166.968,513.276 164.308,516.048 161.144,516.048 L161.144,516.048 Z M178.44,517.252 C179.336,517.252 180.036,517.084 180.764,516.748 L180.764,515.46 C179.952,515.824 179.364,515.964 178.664,515.964 C177.012,515.964 175.808,515.236 175.808,513.192 L175.808,503.98 L180.82,503.98 L180.82,502.72 L175.808,502.72 L175.808,498.156 L174.436,498.156 L174.436,502.72 L172.364,502.72 L172.364,503.98 L174.436,503.98 L174.436,513.332 C174.436,516.048 176.228,517.252 178.44,517.252 L178.44,517.252 Z M191.48,517.336 C194.224,517.336 195.932,516.216 197.388,514.648 L196.436,513.808 C195.26,515.068 193.748,516.048 191.536,516.048 C188.736,516.048 186.188,513.976 185.936,510.42 L197.78,510.42 C197.808,510.196 197.808,510.112 197.808,509.86 C197.808,505.632 195.26,502.384 191.256,502.384 C187.392,502.384 184.48,505.688 184.48,509.832 C184.48,514.34 187.728,517.336 191.48,517.336 L191.48,517.336 Z M185.936,509.188 C186.188,506.024 188.372,503.644 191.2,503.644 C194.476,503.644 196.128,506.304 196.324,509.188 L185.936,509.188 Z M203.008,517 L204.38,517 L204.38,496.56 L203.008,496.56 L203.008,517 Z M220.184,517 L221.556,517 L221.556,508.768 C221.556,505.884 223.572,503.644 226.12,503.644 C228.668,503.644 230.292,505.464 230.292,508.432 L230.292,517 L231.664,517 L231.664,508.684 C231.664,505.492 233.764,503.644 236.172,503.644 C238.804,503.644 240.4,505.436 240.4,508.516 L240.4,517 L241.772,517 L241.772,508.348 C241.772,504.764 239.672,502.384 236.284,502.384 C233.596,502.384 232.056,503.868 231.132,505.464 C230.348,503.812 228.808,502.384 226.316,502.384 C223.768,502.384 222.48,503.784 221.556,505.268 L221.556,502.72 L220.184,502.72 L220.184,517 Z M252.152,517.336 C254.868,517.336 256.632,515.992 257.612,514.62 L257.612,517 L258.956,517 L258.956,508.096 C258.956,506.332 258.452,505.016 257.5,504.064 C256.464,503.028 254.924,502.496 252.992,502.496 C251.032,502.496 249.492,503 247.924,503.728 L248.428,504.932 C249.744,504.26 251.172,503.784 252.908,503.784 C255.848,503.784 257.612,505.268 257.612,508.152 L257.612,508.768 C256.24,508.404 254.868,508.152 252.88,508.152 C249.184,508.152 246.636,509.832 246.636,512.8 C246.636,515.824 249.492,517.336 252.152,517.336 L252.152,517.336 Z M252.236,516.048 C250.052,516.048 248.092,514.844 248.092,512.772 C248.092,510.728 249.772,509.384 252.796,509.384 C254.84,509.384 256.436,509.72 257.64,510.028 L257.64,511.652 C257.64,514.256 255.148,516.048 252.236,516.048 L252.236,516.048 Z M264.884,517 L266.256,517 L266.256,508.74 C266.256,505.772 268.412,503.644 271.212,503.644 C274.096,503.644 275.748,505.576 275.748,508.516 L275.748,517 L277.12,517 L277.12,508.264 C277.12,504.848 275.02,502.384 271.408,502.384 C268.804,502.384 267.208,503.7 266.256,505.38 L266.256,502.72 L264.884,502.72 L264.884,517 Z M287.388,517.336 C290.104,517.336 291.868,515.992 292.848,514.62 L292.848,517 L294.192,517 L294.192,508.096 C294.192,506.332 293.688,505.016 292.736,504.064 C291.7,503.028 290.16,502.496 288.228,502.496 C286.268,502.496 284.728,503 283.16,503.728 L283.664,504.932 C284.98,504.26 286.408,503.784 288.144,503.784 C291.084,503.784 292.848,505.268 292.848,508.152 L292.848,508.768 C291.476,508.404 290.104,508.152 288.116,508.152 C284.42,508.152 281.872,509.832 281.872,512.8 C281.872,515.824 284.728,517.336 287.388,517.336 L287.388,517.336 Z M287.472,516.048 C285.288,516.048 283.328,514.844 283.328,512.772 C283.328,510.728 285.008,509.384 288.032,509.384 C290.076,509.384 291.672,509.72 292.876,510.028 L292.876,511.652 C292.876,514.256 290.384,516.048 287.472,516.048 L287.472,516.048 Z M306.392,521.536 C308.492,521.536 310.34,520.864 311.572,519.632 C312.72,518.484 313.392,516.86 313.392,514.788 L313.392,502.72 L312.02,502.72 L312.02,505.576 C310.844,503.896 308.912,502.384 306.056,502.384 C302.612,502.384 299.196,505.044 299.196,509.16 C299.196,513.304 302.612,515.936 306.056,515.936 C308.884,515.936 310.788,514.396 312.02,512.632 L312.02,514.704 C312.02,518.372 309.696,520.248 306.42,520.248 C304.32,520.248 302.36,519.548 300.652,518.232 L299.84,519.352 C301.8,520.808 304.012,521.536 306.392,521.536 L306.392,521.536 Z M306.196,514.62 C303.256,514.62 300.68,512.38 300.68,509.16 C300.68,505.772 303.2,503.7 306.196,503.7 C309.164,503.7 312.104,505.828 312.104,509.132 C312.104,512.436 309.164,514.62 306.196,514.62 L306.196,514.62 Z M325.62,517.336 C328.364,517.336 330.072,516.216 331.528,514.648 L330.576,513.808 C329.4,515.068 327.888,516.048 325.676,516.048 C322.876,516.048 320.328,513.976 320.076,510.42 L331.92,510.42 C331.948,510.196 331.948,510.112 331.948,509.86 C331.948,505.632 329.4,502.384 325.396,502.384 C321.532,502.384 318.62,505.688 318.62,509.832 C318.62,514.34 321.868,517.336 325.62,517.336 L325.62,517.336 Z M320.076,509.188 C320.328,506.024 322.512,503.644 325.34,503.644 C328.616,503.644 330.268,506.304 330.464,509.188 L320.076,509.188 Z M336.952,517 L338.324,517 L338.324,508.768 C338.324,505.884 340.34,503.644 342.888,503.644 C345.436,503.644 347.06,505.464 347.06,508.432 L347.06,517 L348.432,517 L348.432,508.684 C348.432,505.492 350.532,503.644 352.94,503.644 C355.572,503.644 357.168,505.436 357.168,508.516 L357.168,517 L358.54,517 L358.54,508.348 C358.54,504.764 356.44,502.384 353.052,502.384 C350.364,502.384 348.824,503.868 347.9,505.464 C347.116,503.812 345.576,502.384 343.084,502.384 C340.536,502.384 339.248,503.784 338.324,505.268 L338.324,502.72 L336.952,502.72 L336.952,517 Z M370.6,517.336 C373.344,517.336 375.052,516.216 376.508,514.648 L375.556,513.808 C374.38,515.068 372.868,516.048 370.656,516.048 C367.856,516.048 365.308,513.976 365.056,510.42 L376.9,510.42 C376.928,510.196 376.928,510.112 376.928,509.86 C376.928,505.632 374.38,502.384 370.376,502.384 C366.512,502.384 363.6,505.688 363.6,509.832 C363.6,514.34 366.848,517.336 370.6,517.336 L370.6,517.336 Z M365.056,509.188 C365.308,506.024 367.492,503.644 370.32,503.644 C373.596,503.644 375.248,506.304 375.444,509.188 L365.056,509.188 Z M381.932,517 L383.304,517 L383.304,508.74 C383.304,505.772 385.46,503.644 388.26,503.644 C391.144,503.644 392.796,505.576 392.796,508.516 L392.796,517 L394.168,517 L394.168,508.264 C394.168,504.848 392.068,502.384 388.456,502.384 C385.852,502.384 384.256,503.7 383.304,505.38 L383.304,502.72 L381.932,502.72 L381.932,517 Z M404.856,517.252 C405.752,517.252 406.452,517.084 407.18,516.748 L407.18,515.46 C406.368,515.824 405.78,515.964 405.08,515.964 C403.428,515.964 402.224,515.236 402.224,513.192 L402.224,503.98 L407.236,503.98 L407.236,502.72 L402.224,502.72 L402.224,498.156 L400.852,498.156 L400.852,502.72 L398.78,502.72 L398.78,503.98 L400.852,503.98 L400.852,513.332 C400.852,516.048 402.644,517.252 404.856,517.252 L404.856,517.252 Z M426.036,517.336 C428.752,517.336 430.516,515.992 431.496,514.62 L431.496,517 L432.84,517 L432.84,508.096 C432.84,506.332 432.336,505.016 431.384,504.064 C430.348,503.028 428.808,502.496 426.876,502.496 C424.916,502.496 423.376,503 421.808,503.728 L422.312,504.932 C423.628,504.26 425.056,503.784 426.792,503.784 C429.732,503.784 431.496,505.268 431.496,508.152 L431.496,508.768 C430.124,508.404 428.752,508.152 426.764,508.152 C423.068,508.152 420.52,509.832 420.52,512.8 C420.52,515.824 423.376,517.336 426.036,517.336 L426.036,517.336 Z M426.12,516.048 C423.936,516.048 421.976,514.844 421.976,512.772 C421.976,510.728 423.656,509.384 426.68,509.384 C428.724,509.384 430.32,509.72 431.524,510.028 L431.524,511.652 C431.524,514.256 429.032,516.048 426.12,516.048 L426.12,516.048 Z M438.768,521.48 L440.14,521.48 L440.14,513.92 C441.316,515.712 443.164,517.336 446.02,517.336 C449.464,517.336 452.964,514.508 452.964,509.86 C452.964,505.156 449.464,502.384 446.02,502.384 C443.192,502.384 441.372,504.036 440.14,505.912 L440.14,502.72 L438.768,502.72 L438.768,521.48 Z M445.88,516.02 C442.912,516.02 440.056,513.556 440.056,509.888 C440.056,506.192 442.912,503.7 445.88,503.7 C448.876,503.7 451.48,506.108 451.48,509.86 C451.48,513.752 448.988,516.02 445.88,516.02 L445.88,516.02 Z M458.248,521.48 L459.62,521.48 L459.62,513.92 C460.796,515.712 462.644,517.336 465.5,517.336 C468.944,517.336 472.444,514.508 472.444,509.86 C472.444,505.156 468.944,502.384 465.5,502.384 C462.672,502.384 460.852,504.036 459.62,505.912 L459.62,502.72 L458.248,502.72 L458.248,521.48 Z M465.36,516.02 C462.392,516.02 459.536,513.556 459.536,509.888 C459.536,506.192 462.392,503.7 465.36,503.7 C468.356,503.7 470.96,506.108 470.96,509.86 C470.96,513.752 468.468,516.02 465.36,516.02 L465.36,516.02 Z" id="Hotel-management-app" fill="#FFFFFF"></path>
                <path d="M162.597335,94 L166.629335,94 L168.933335,88.592 L179.525335,88.592 L181.797335,94 L185.957335,94 L176.101335,71.44 L172.453335,71.44 L162.597335,94 Z M170.373335,85.104 L174.213335,76.144 L178.085335,85.104 L170.373335,85.104 Z M194.064001,94 L198.000001,94 L198.000001,86.8 L202.448001,86.8 C207.376001,86.8 211.408001,84.176 211.408001,79.152 C211.408001,74.576 208.112001,71.6 202.896001,71.6 L194.064001,71.6 L194.064001,94 Z M198.000001,83.248 L198.000001,75.184 L202.576001,75.184 C205.520001,75.184 207.408001,76.56 207.408001,79.184 C207.408001,81.584 205.552001,83.248 202.576001,83.248 L198.000001,83.248 Z M219.706668,94 L236.474668,94 L236.474668,90.48 L223.642668,90.48 L223.642668,84.464 L234.874668,84.464 L234.874668,80.944 L223.642668,80.944 L223.642668,75.12 L236.314668,75.12 L236.314668,71.6 L219.706668,71.6 L219.706668,94 Z M243.717334,94 L248.229334,94 L254.149334,85.52 L260.037334,94 L264.677334,94 L256.549334,82.544 L264.357334,71.6 L259.845334,71.6 L254.245334,79.632 L248.677334,71.6 L244.037334,71.6 L251.877334,82.608 L243.717334,94 Z M286.874667,94 L290.810667,94 L290.810667,84.56 L301.498667,84.56 L301.498667,94 L305.434667,94 L305.434667,71.6 L301.498667,71.6 L301.498667,80.912 L290.810667,80.912 L290.810667,71.6 L286.874667,71.6 L286.874667,94 Z M326.149333,94.384 C333.029333,94.384 337.893333,89.104 337.893333,82.8 C337.893333,76.432 333.093333,71.216 326.213333,71.216 C319.333333,71.216 314.469333,76.496 314.469333,82.8 C314.469333,89.168 319.269333,94.384 326.149333,94.384 L326.149333,94.384 Z M326.213333,90.768 C321.765333,90.768 318.597333,87.152 318.597333,82.8 C318.597333,78.384 321.701333,74.832 326.149333,74.832 C330.597333,74.832 333.765333,78.448 333.765333,82.8 C333.765333,87.216 330.661333,90.768 326.213333,90.768 L326.213333,90.768 Z M351.216,94 L355.184,94 L355.184,75.248 L362.288,75.248 L362.288,71.6 L344.112,71.6 L344.112,75.248 L351.216,75.248 L351.216,94 Z M370.714666,94 L387.482666,94 L387.482666,90.48 L374.650666,90.48 L374.650666,84.464 L385.882666,84.464 L385.882666,80.944 L374.650666,80.944 L374.650666,75.12 L387.322666,75.12 L387.322666,71.6 L370.714666,71.6 L370.714666,94 Z M396.421332,94 L412.133332,94 L412.133332,90.416 L400.357332,90.416 L400.357332,71.6 L396.421332,71.6 L396.421332,94 Z M428.335999,94.32 C433.039999,94.32 436.335999,91.824 436.335999,87.632 C436.335999,83.856 433.871999,82.16 429.135999,81.008 C424.847999,79.984 423.823999,79.216 423.823999,77.488 C423.823999,75.952 425.167999,74.768 427.471999,74.768 C429.519999,74.768 431.535999,75.568 433.551999,77.072 L435.663999,74.096 C433.391999,72.272 430.799999,71.28 427.535999,71.28 C423.087999,71.28 419.887999,73.936 419.887999,77.776 C419.887999,81.968 422.575999,83.376 427.343999,84.496 C431.503999,85.488 432.399999,86.352 432.399999,87.952 C432.399999,89.712 430.863999,90.832 428.431999,90.832 C425.647999,90.832 423.503999,89.776 421.359999,87.92 L418.991999,90.736 C421.679999,93.136 424.911999,94.32 428.335999,94.32 L428.335999,94.32 Z" id="APEX-HOTELS" fill="#FFFFFF"></path>
            </g>
        </g>
    </g>
</svg>