<?xml version="1.0" encoding="UTF-8" standalone="no"?>
<svg width="600px" height="600px" viewBox="0 0 600 600" version="1.1" xmlns="http://www.w3.org/2000/svg" xmlns:xlink="http://www.w3.org/1999/xlink">
    <!-- Generator: Sketch 3.7.2 (28276) - http://www.bohemiancoding.com/sketch -->
    <title>telepark text</title>
    <desc>Created with Sketch.</desc>
    <defs></defs>
    <g id="Page-1" stroke="none" stroke-width="1" fill="none" fill-rule="evenodd">
        <g id="telepark-text">
            <g id="Group">
                <rect id="Rectangle-12980" x="0" y="0" width="600" height="600"></rect>
                <path d="M140.68,339.28 C144.46,339.28 147.176,337.096 147.176,333.932 C147.176,331.02 145.272,329.396 140.736,328.472 C136.088,327.52 135.024,326.26 135.024,324.188 C135.024,322.088 136.928,320.436 139.812,320.436 C141.968,320.436 143.816,321.052 145.664,322.648 L146.588,321.5 C144.6,319.904 142.724,319.12 139.868,319.12 C136.228,319.12 133.568,321.36 133.568,324.272 C133.568,327.296 135.472,328.892 140.176,329.844 C144.628,330.74 145.72,331.944 145.72,334.016 C145.72,336.312 143.704,337.964 140.764,337.964 C137.88,337.964 135.892,337.04 133.736,335.052 L132.784,336.144 C135.136,338.244 137.544,339.28 140.68,339.28 L140.68,339.28 Z M152.964,339 L154.364,339 L154.364,321.976 L162.12,333.26 L162.232,333.26 L169.988,321.976 L169.988,339 L171.444,339 L171.444,319.4 L170.072,319.4 L162.204,330.992 L154.336,319.4 L152.964,319.4 L152.964,339 Z M176.588,339 L178.1,339 L180.592,333.512 L192.156,333.512 L194.648,339 L196.244,339 L187.116,319.26 L185.716,319.26 L176.588,339 Z M181.208,332.196 L186.388,320.856 L191.54,332.196 L181.208,332.196 Z M201.388,339 L202.844,339 L202.844,330.88 L209.256,330.88 L215.5,339 L217.348,339 L210.88,330.628 C214.184,330.18 216.62,328.304 216.62,325.028 C216.62,323.572 216.06,322.256 215.136,321.332 C213.96,320.156 212.028,319.4 209.62,319.4 L201.388,319.4 L201.388,339 Z M202.844,329.564 L202.844,320.744 L209.536,320.744 C213.092,320.744 215.164,322.396 215.164,325.028 C215.164,327.912 212.728,329.564 209.452,329.564 L202.844,329.564 Z M227.784,339 L229.24,339 L229.24,320.744 L236.072,320.744 L236.072,319.4 L220.952,319.4 L220.952,320.744 L227.784,320.744 L227.784,339 Z M256.328,339 L257.784,339 L257.784,320.744 L264.616,320.744 L264.616,319.4 L249.496,319.4 L249.496,320.744 L256.328,320.744 L256.328,339 Z M276.984,339.14 L278.272,339.14 L286.896,319.4 L285.356,319.4 L277.656,337.432 L269.984,319.4 L268.36,319.4 L276.984,339.14 Z M299.76,339 L301.272,339 L303.764,333.512 L315.328,333.512 L317.82,339 L319.416,339 L310.288,319.26 L308.888,319.26 L299.76,339 Z M304.38,332.196 L309.56,320.856 L314.712,332.196 L304.38,332.196 Z M324.252,343.48 L325.624,343.48 L325.624,335.92 C326.8,337.712 328.648,339.336 331.504,339.336 C334.948,339.336 338.448,336.508 338.448,331.86 C338.448,327.156 334.948,324.384 331.504,324.384 C328.676,324.384 326.856,326.036 325.624,327.912 L325.624,324.72 L324.252,324.72 L324.252,343.48 Z M331.364,338.02 C328.396,338.02 325.54,335.556 325.54,331.888 C325.54,328.192 328.396,325.7 331.364,325.7 C334.36,325.7 336.964,328.108 336.964,331.86 C336.964,335.752 334.472,338.02 331.364,338.02 L331.364,338.02 Z M343.732,343.48 L345.104,343.48 L345.104,335.92 C346.28,337.712 348.128,339.336 350.984,339.336 C354.428,339.336 357.928,336.508 357.928,331.86 C357.928,327.156 354.428,324.384 350.984,324.384 C348.156,324.384 346.336,326.036 345.104,327.912 L345.104,324.72 L343.732,324.72 L343.732,343.48 Z M350.844,338.02 C347.876,338.02 345.02,335.556 345.02,331.888 C345.02,328.192 347.876,325.7 350.844,325.7 C353.84,325.7 356.444,328.108 356.444,331.86 C356.444,335.752 353.952,338.02 350.844,338.02 L350.844,338.02 Z M363.408,339 L364.78,339 L364.78,318.56 L363.408,318.56 L363.408,339 Z M371.38,339 L372.752,339 L372.752,324.72 L371.38,324.72 L371.38,339 Z M371.212,320.996 L372.92,320.996 L372.92,319.12 L371.212,319.12 L371.212,320.996 Z M385.456,339.336 C388.088,339.336 389.824,338.16 391.28,336.508 L390.272,335.612 C389.068,336.956 387.556,338.048 385.54,338.048 C382.264,338.048 379.66,335.304 379.66,331.86 C379.66,328.444 382.264,325.672 385.428,325.672 C387.556,325.672 388.956,326.764 390.188,328.024 L391.14,327.044 C389.88,325.616 388.144,324.384 385.456,324.384 C381.368,324.384 378.176,327.772 378.176,331.86 C378.176,335.976 381.34,339.336 385.456,339.336 L385.456,339.336 Z M400.484,339.336 C403.2,339.336 404.964,337.992 405.944,336.62 L405.944,339 L407.288,339 L407.288,330.096 C407.288,328.332 406.784,327.016 405.832,326.064 C404.796,325.028 403.256,324.496 401.324,324.496 C399.364,324.496 397.824,325 396.256,325.728 L396.76,326.932 C398.076,326.26 399.504,325.784 401.24,325.784 C404.18,325.784 405.944,327.268 405.944,330.152 L405.944,330.768 C404.572,330.404 403.2,330.152 401.212,330.152 C397.516,330.152 394.968,331.832 394.968,334.8 C394.968,337.824 397.824,339.336 400.484,339.336 L400.484,339.336 Z M400.568,338.048 C398.384,338.048 396.424,336.844 396.424,334.772 C396.424,332.728 398.104,331.384 401.128,331.384 C403.172,331.384 404.768,331.72 405.972,332.028 L405.972,333.652 C405.972,336.256 403.48,338.048 400.568,338.048 L400.568,338.048 Z M417.976,339.252 C418.872,339.252 419.572,339.084 420.3,338.748 L420.3,337.46 C419.488,337.824 418.9,337.964 418.2,337.964 C416.548,337.964 415.344,337.236 415.344,335.192 L415.344,325.98 L420.356,325.98 L420.356,324.72 L415.344,324.72 L415.344,320.156 L413.972,320.156 L413.972,324.72 L411.9,324.72 L411.9,325.98 L413.972,325.98 L413.972,335.332 C413.972,338.048 415.764,339.252 417.976,339.252 L417.976,339.252 Z M425.612,339 L426.984,339 L426.984,324.72 L425.612,324.72 L425.612,339 Z M425.444,320.996 L427.152,320.996 L427.152,319.12 L425.444,319.12 L425.444,320.996 Z M439.716,339.336 C443.972,339.336 447.08,335.864 447.08,331.86 C447.08,327.8 444,324.384 439.772,324.384 C435.516,324.384 432.408,327.856 432.408,331.86 C432.408,335.92 435.488,339.336 439.716,339.336 L439.716,339.336 Z M439.772,338.048 C436.468,338.048 433.892,335.304 433.892,331.86 C433.892,328.444 436.496,325.672 439.716,325.672 C442.936,325.672 445.596,328.416 445.596,331.86 C445.596,335.276 442.936,338.048 439.772,338.048 L439.772,338.048 Z M452.308,339 L453.68,339 L453.68,330.74 C453.68,327.772 455.836,325.644 458.636,325.644 C461.52,325.644 463.172,327.576 463.172,330.516 L463.172,339 L464.544,339 L464.544,330.264 C464.544,326.848 462.444,324.384 458.832,324.384 C456.228,324.384 454.632,325.7 453.68,327.38 L453.68,324.72 L452.308,324.72 L452.308,339 Z" id="SMART-TV-Application" fill="#FFFFFF"></path>
                <path d="M100.283,281.17 L104.839,281.17 L110.211,265.598 L115.583,281.17 L120.139,281.17 L128.265,257.2 L122.791,257.2 L117.861,273.316 L112.523,257.132 L108.035,257.132 L102.697,273.316 L97.767,257.2 L92.157,257.2 L100.283,281.17 Z M144.341,281.408 C151.685,281.408 157.023,275.866 157.023,269.1 C157.023,262.266 151.753,256.792 144.409,256.792 C137.065,256.792 131.727,262.334 131.727,269.1 C131.727,275.934 136.997,281.408 144.341,281.408 L144.341,281.408 Z M144.409,276.58 C140.193,276.58 137.201,273.18 137.201,269.1 C137.201,264.952 140.125,261.62 144.341,261.62 C148.557,261.62 151.549,265.02 151.549,269.1 C151.549,273.248 148.625,276.58 144.409,276.58 L144.409,276.58 Z M163.681,281 L168.917,281 L168.917,273.384 L172.963,273.384 L178.131,281 L184.251,281 L178.437,272.5 C181.463,271.378 183.537,268.964 183.537,265.122 C183.537,262.81 182.823,260.94 181.497,259.614 C179.933,258.05 177.587,257.2 174.561,257.2 L163.681,257.2 L163.681,281 Z M168.917,268.76 L168.917,261.926 L174.119,261.926 C176.669,261.926 178.233,263.082 178.233,265.326 C178.233,267.4 176.771,268.76 174.221,268.76 L168.917,268.76 Z M190.263,281 L195.499,281 L195.499,273.724 L198.253,270.868 L205.631,281 L211.921,281 L201.789,267.298 L211.479,257.2 L205.155,257.2 L195.499,267.604 L195.499,257.2 L190.263,257.2 L190.263,281 Z M229.521,281 L234.757,281 L234.757,257.2 L229.521,257.2 L229.521,281 Z M242.707,281 L247.875,281 L247.875,265.87 L259.401,281 L263.855,281 L263.855,257.2 L258.687,257.2 L258.687,271.854 L247.535,257.2 L242.707,257.2 L242.707,281 Z M283.767,281 L289.003,281 L289.003,273.86 L292.981,273.86 C298.319,273.86 302.603,271.004 302.603,265.496 C302.603,260.566 299.169,257.2 293.491,257.2 L283.767,257.2 L283.767,281 Z M289.003,269.202 L289.003,261.926 L293.049,261.926 C295.667,261.926 297.299,263.184 297.299,265.53 C297.299,267.638 295.769,269.202 293.151,269.202 L289.003,269.202 Z M308.479,281 L313.715,281 L313.715,273.384 L317.761,273.384 L322.929,281 L329.049,281 L323.235,272.5 C326.261,271.378 328.335,268.964 328.335,265.122 C328.335,262.81 327.621,260.94 326.295,259.614 C324.731,258.05 322.385,257.2 319.359,257.2 L308.479,257.2 L308.479,281 Z M313.715,268.76 L313.715,261.926 L318.917,261.926 C321.467,261.926 323.031,263.082 323.031,265.326 C323.031,267.4 321.569,268.76 319.019,268.76 L313.715,268.76 Z M346.621,281.408 C353.965,281.408 359.303,275.866 359.303,269.1 C359.303,262.266 354.033,256.792 346.689,256.792 C339.345,256.792 334.007,262.334 334.007,269.1 C334.007,275.934 339.277,281.408 346.621,281.408 L346.621,281.408 Z M346.689,276.58 C342.473,276.58 339.481,273.18 339.481,269.1 C339.481,264.952 342.405,261.62 346.621,261.62 C350.837,261.62 353.829,265.02 353.829,269.1 C353.829,273.248 350.905,276.58 346.689,276.58 L346.689,276.58 Z M377.419,281.408 C381.771,281.408 385.137,279.708 387.585,277.634 L387.585,267.298 L377.249,267.298 L377.249,271.82 L382.519,271.82 L382.519,275.22 C381.193,276.172 379.493,276.648 377.589,276.648 C373.373,276.648 370.381,273.452 370.381,269.1 C370.381,264.986 373.407,261.62 377.215,261.62 C379.969,261.62 381.601,262.504 383.437,264.034 L386.735,260.056 C384.253,257.948 381.669,256.792 377.385,256.792 C370.177,256.792 364.907,262.334 364.907,269.1 C364.907,276.206 370.007,281.408 377.419,281.408 L377.419,281.408 Z M394.617,281 L399.853,281 L399.853,273.384 L403.899,273.384 L409.067,281 L415.187,281 L409.373,272.5 C412.399,271.378 414.473,268.964 414.473,265.122 C414.473,262.81 413.759,260.94 412.433,259.614 C410.869,258.05 408.523,257.2 405.497,257.2 L394.617,257.2 L394.617,281 Z M399.853,268.76 L399.853,261.926 L405.055,261.926 C407.605,261.926 409.169,263.082 409.169,265.326 C409.169,267.4 407.707,268.76 405.157,268.76 L399.853,268.76 Z M421.199,281 L439.321,281 L439.321,276.342 L426.401,276.342 L426.401,271.344 L437.621,271.344 L437.621,266.686 L426.401,266.686 L426.401,261.858 L439.151,261.858 L439.151,257.2 L421.199,257.2 L421.199,281 Z M454.445,281.34 C459.579,281.34 463.183,278.688 463.183,273.962 C463.183,269.746 460.463,268.012 455.635,266.754 C451.521,265.7 450.501,265.19 450.501,263.626 C450.501,262.402 451.555,261.484 453.561,261.484 C455.567,261.484 457.641,262.368 459.749,263.83 L462.469,259.886 C460.055,257.948 457.097,256.86 453.629,256.86 C448.767,256.86 445.299,259.716 445.299,264.034 C445.299,268.828 448.393,270.154 453.187,271.378 C457.165,272.398 457.981,273.078 457.981,274.404 C457.981,275.866 456.689,276.716 454.547,276.716 C451.827,276.716 449.583,275.594 447.441,273.826 L444.347,277.532 C447.203,280.082 450.841,281.34 454.445,281.34 L454.445,281.34 Z M477.865,281.34 C482.999,281.34 486.603,278.688 486.603,273.962 C486.603,269.746 483.883,268.012 479.055,266.754 C474.941,265.7 473.921,265.19 473.921,263.626 C473.921,262.402 474.975,261.484 476.981,261.484 C478.987,261.484 481.061,262.368 483.169,263.83 L485.889,259.886 C483.475,257.948 480.517,256.86 477.049,256.86 C472.187,256.86 468.719,259.716 468.719,264.034 C468.719,268.828 471.813,270.154 476.607,271.378 C480.585,272.398 481.401,273.078 481.401,274.404 C481.401,275.866 480.109,276.716 477.967,276.716 C475.247,276.716 473.003,275.594 470.861,273.826 L467.767,277.532 C470.623,280.082 474.261,281.34 477.865,281.34 L477.865,281.34 Z M511.383,281 L516.755,281 L516.755,275.696 L511.383,275.696 L511.383,281 Z M501.897,281 L507.269,281 L507.269,275.696 L501.897,275.696 L501.897,281 Z M492.411,281 L497.783,281 L497.783,275.696 L492.411,275.696 L492.411,281 Z" id="WORK-IN-PROGRESS…" fill="#FFFFFF"></path>
            </g>
        </g>
    </g>
</svg>